<svg version="1.1" xmlns="http://www.w3.org/2000/svg" style="display: block;" viewBox="0 0 2048 2048" width="1024" height="1024" preserveAspectRatio="none">
<defs>
	<linearGradient id="Gradient1" gradientUnits="userSpaceOnUse" x1="1194.25" y1="1347.79" x2="897.097" y2="1384.33">
		<stop class="stop0" offset="0" stop-opacity="1" stop-color="rgb(100,124,158)"/>
		<stop class="stop1" offset="1" stop-opacity="1" stop-color="rgb(141,171,206)"/>
	</linearGradient>
	<linearGradient id="Gradient2" gradientUnits="userSpaceOnUse" x1="1461.58" y1="1325.27" x2="1493.15" y2="1278.82">
		<stop class="stop0" offset="0" stop-opacity="1" stop-color="rgb(0,97,96)"/>
		<stop class="stop1" offset="1" stop-opacity="1" stop-color="rgb(10,153,136)"/>
	</linearGradient>
	<linearGradient id="Gradient3" gradientUnits="userSpaceOnUse" x1="1564.93" y1="1192.68" x2="1532.99" y2="1228.94">
		<stop class="stop0" offset="0" stop-opacity="1" stop-color="rgb(1,69,63)"/>
		<stop class="stop1" offset="1" stop-opacity="1" stop-color="rgb(3,136,124)"/>
	</linearGradient>
	<linearGradient id="Gradient4" gradientUnits="userSpaceOnUse" x1="589.556" y1="1551.19" x2="592.71" y2="1546.31">
		<stop class="stop0" offset="0" stop-opacity="1" stop-color="rgb(137,145,152)"/>
		<stop class="stop1" offset="1" stop-opacity="1" stop-color="rgb(209,211,219)"/>
	</linearGradient>
	<linearGradient id="Gradient5" gradientUnits="userSpaceOnUse" x1="789.589" y1="1285" x2="634.544" y2="1499.08">
		<stop class="stop0" offset="0" stop-opacity="1" stop-color="rgb(91,116,149)"/>
		<stop class="stop1" offset="1" stop-opacity="1" stop-color="rgb(144,172,202)"/>
	</linearGradient>
	<linearGradient id="Gradient6" gradientUnits="userSpaceOnUse" x1="724.676" y1="1256.89" x2="562.324" y2="1473.11">
		<stop class="stop0" offset="0" stop-opacity="1" stop-color="rgb(165,244,220)"/>
		<stop class="stop1" offset="1" stop-opacity="1" stop-color="rgb(218,240,241)"/>
	</linearGradient>
	<linearGradient id="Gradient7" gradientUnits="userSpaceOnUse" x1="929.977" y1="1163.08" x2="864.885" y2="1162.93">
		<stop class="stop0" offset="0" stop-opacity="1" stop-color="rgb(0,174,153)"/>
		<stop class="stop1" offset="1" stop-opacity="1" stop-color="rgb(47,226,189)"/>
	</linearGradient>
	<linearGradient id="Gradient8" gradientUnits="userSpaceOnUse" x1="1256.99" y1="1168.29" x2="1186.01" y2="1305.71">
		<stop class="stop0" offset="0" stop-opacity="1" stop-color="rgb(67,74,89)"/>
		<stop class="stop1" offset="1" stop-opacity="1" stop-color="rgb(103,126,161)"/>
	</linearGradient>
	<linearGradient id="Gradient9" gradientUnits="userSpaceOnUse" x1="771.181" y1="1171.36" x2="800.819" y2="1181.64">
		<stop class="stop0" offset="0" stop-opacity="1" stop-color="rgb(149,201,204)"/>
		<stop class="stop1" offset="1" stop-opacity="1" stop-color="rgb(192,211,227)"/>
	</linearGradient>
	<linearGradient id="Gradient10" gradientUnits="userSpaceOnUse" x1="882.359" y1="1209.52" x2="841.762" y2="1203.64">
		<stop class="stop0" offset="0" stop-opacity="1" stop-color="rgb(151,178,189)"/>
		<stop class="stop1" offset="1" stop-opacity="1" stop-color="rgb(203,224,236)"/>
	</linearGradient>
	<linearGradient id="Gradient11" gradientUnits="userSpaceOnUse" x1="815.254" y1="1131.33" x2="774.788" y2="1132.81">
		<stop class="stop0" offset="0" stop-opacity="1" stop-color="rgb(149,247,222)"/>
		<stop class="stop1" offset="1" stop-opacity="1" stop-color="rgb(211,255,243)"/>
	</linearGradient>
	<linearGradient id="Gradient12" gradientUnits="userSpaceOnUse" x1="866.065" y1="1149.41" x2="812.873" y2="1149.61">
		<stop class="stop0" offset="0" stop-opacity="1" stop-color="rgb(52,227,188)"/>
		<stop class="stop1" offset="1" stop-opacity="1" stop-color="rgb(144,251,222)"/>
	</linearGradient>
	<linearGradient id="Gradient13" gradientUnits="userSpaceOnUse" x1="1385.76" y1="887.235" x2="979.513" y2="1274.4">
		<stop class="stop0" offset="0" stop-opacity="1" stop-color="rgb(2,81,69)"/>
		<stop class="stop1" offset="1" stop-opacity="1" stop-color="rgb(4,175,162)"/>
	</linearGradient>
	<linearGradient id="Gradient14" gradientUnits="userSpaceOnUse" x1="712.678" y1="1103.52" x2="776.176" y2="1105.64">
		<stop class="stop0" offset="0" stop-opacity="1" stop-color="rgb(31,213,179)"/>
		<stop class="stop1" offset="1" stop-opacity="1" stop-color="rgb(170,255,232)"/>
	</linearGradient>
	<linearGradient id="Gradient15" gradientUnits="userSpaceOnUse" x1="1380.96" y1="804.426" x2="1354.99" y2="804.563">
		<stop class="stop0" offset="0" stop-opacity="1" stop-color="rgb(1,74,18)"/>
		<stop class="stop1" offset="1" stop-opacity="1" stop-color="rgb(5,100,38)"/>
	</linearGradient>
	<linearGradient id="Gradient16" gradientUnits="userSpaceOnUse" x1="1311.7" y1="734.309" x2="1176.15" y2="799.798">
		<stop class="stop0" offset="0" stop-opacity="1" stop-color="rgb(2,66,101)"/>
		<stop class="stop1" offset="1" stop-opacity="1" stop-color="rgb(33,108,138)"/>
	</linearGradient>
	<linearGradient id="Gradient17" gradientUnits="userSpaceOnUse" x1="937.959" y1="763.949" x2="915.374" y2="682.721">
		<stop class="stop0" offset="0" stop-opacity="1" stop-color="rgb(47,114,142)"/>
		<stop class="stop1" offset="1" stop-opacity="1" stop-color="rgb(102,167,191)"/>
	</linearGradient>
	<linearGradient id="Gradient18" gradientUnits="userSpaceOnUse" x1="1010.4" y1="868.801" x2="1043.9" y2="592.144">
		<stop class="stop0" offset="0" stop-opacity="1" stop-color="rgb(2,114,51)"/>
		<stop class="stop1" offset="1" stop-opacity="1" stop-color="rgb(2,183,95)"/>
	</linearGradient>
	<linearGradient id="Gradient19" gradientUnits="userSpaceOnUse" x1="969.103" y1="1129.14" x2="979.697" y2="1070.51">
		<stop class="stop0" offset="0" stop-opacity="1" stop-color="rgb(0,140,64)"/>
		<stop class="stop1" offset="1" stop-opacity="1" stop-color="rgb(11,234,180)"/>
	</linearGradient>
	<linearGradient id="Gradient20" gradientUnits="userSpaceOnUse" x1="1218.72" y1="1006.16" x2="1217.35" y2="960.929">
		<stop class="stop0" offset="0" stop-opacity="1" stop-color="rgb(8,21,23)"/>
		<stop class="stop1" offset="1" stop-opacity="1" stop-color="rgb(28,66,62)"/>
	</linearGradient>
	<linearGradient id="Gradient21" gradientUnits="userSpaceOnUse" x1="923.835" y1="1014.68" x2="952.183" y2="987.336">
		<stop class="stop0" offset="0" stop-opacity="1" stop-color="rgb(11,18,16)"/>
		<stop class="stop1" offset="1" stop-opacity="1" stop-color="rgb(20,39,40)"/>
	</linearGradient>
	<linearGradient id="Gradient22" gradientUnits="userSpaceOnUse" x1="1202.7" y1="912.381" x2="1203.67" y2="823.016">
		<stop class="stop0" offset="0" stop-opacity="1" stop-color="rgb(5,35,56)"/>
		<stop class="stop1" offset="1" stop-opacity="1" stop-color="rgb(18,88,124)"/>
	</linearGradient>
	<linearGradient id="Gradient23" gradientUnits="userSpaceOnUse" x1="1022.77" y1="1055.81" x2="1027.24" y2="885.981">
		<stop class="stop0" offset="0" stop-opacity="1" stop-color="rgb(0,0,0)"/>
		<stop class="stop1" offset="1" stop-opacity="1" stop-color="rgb(6,39,63)"/>
	</linearGradient>
	<linearGradient id="Gradient24" gradientUnits="userSpaceOnUse" x1="1033.14" y1="825.138" x2="1028.22" y2="767.197">
		<stop class="stop0" offset="0" stop-opacity="1" stop-color="rgb(21,92,126)"/>
		<stop class="stop1" offset="1" stop-opacity="1" stop-color="rgb(39,132,176)"/>
	</linearGradient>
	<linearGradient id="Gradient25" gradientUnits="userSpaceOnUse" x1="1241.75" y1="835.306" x2="1238.18" y2="753.077">
		<stop class="stop0" offset="0" stop-opacity="1" stop-color="rgb(17,82,117)"/>
		<stop class="stop1" offset="1" stop-opacity="1" stop-color="rgb(30,135,183)"/>
	</linearGradient>
	<linearGradient id="Gradient26" gradientUnits="userSpaceOnUse" x1="888.784" y1="826.04" x2="882.646" y2="793.254">
		<stop class="stop0" offset="0" stop-opacity="1" stop-color="rgb(31,101,135)"/>
		<stop class="stop1" offset="1" stop-opacity="1" stop-color="rgb(38,124,152)"/>
	</linearGradient>
	<linearGradient id="Gradient27" gradientUnits="userSpaceOnUse" x1="862.177" y1="832.978" x2="857.271" y2="792.698">
		<stop class="stop0" offset="0" stop-opacity="1" stop-color="rgb(27,95,123)"/>
		<stop class="stop1" offset="1" stop-opacity="1" stop-color="rgb(57,131,164)"/>
	</linearGradient>
	<linearGradient id="Gradient28" gradientUnits="userSpaceOnUse" x1="917.38" y1="829.021" x2="908.516" y2="782.429">
		<stop class="stop0" offset="0" stop-opacity="1" stop-color="rgb(22,92,125)"/>
		<stop class="stop1" offset="1" stop-opacity="1" stop-color="rgb(48,132,166)"/>
	</linearGradient>
	<linearGradient id="Gradient29" gradientUnits="userSpaceOnUse" x1="897.63" y1="826.52" x2="873.904" y2="791.798">
		<stop class="stop0" offset="0" stop-opacity="1" stop-color="rgb(55,149,174)"/>
		<stop class="stop1" offset="1" stop-opacity="1" stop-color="rgb(82,176,200)"/>
	</linearGradient>
	<linearGradient id="Gradient30" gradientUnits="userSpaceOnUse" x1="847.473" y1="831.401" x2="839.93" y2="800.259">
		<stop class="stop0" offset="0" stop-opacity="1" stop-color="rgb(41,113,141)"/>
		<stop class="stop1" offset="1" stop-opacity="1" stop-color="rgb(65,139,173)"/>
	</linearGradient>
	<linearGradient id="Gradient31" gradientUnits="userSpaceOnUse" x1="768.844" y1="850.871" x2="760.567" y2="810.153">
		<stop class="stop0" offset="0" stop-opacity="1" stop-color="rgb(26,87,118)"/>
		<stop class="stop1" offset="1" stop-opacity="1" stop-color="rgb(64,132,161)"/>
	</linearGradient>
	<linearGradient id="Gradient32" gradientUnits="userSpaceOnUse" x1="941.209" y1="952.927" x2="940.337" y2="855.212">
		<stop class="stop0" offset="0" stop-opacity="1" stop-color="rgb(91,177,100)"/>
		<stop class="stop1" offset="1" stop-opacity="1" stop-color="rgb(155,242,171)"/>
	</linearGradient>
	<linearGradient id="Gradient33" gradientUnits="userSpaceOnUse" x1="856.011" y1="900.228" x2="849.667" y2="827.907">
		<stop class="stop0" offset="0" stop-opacity="1" stop-color="rgb(4,40,64)"/>
		<stop class="stop1" offset="1" stop-opacity="1" stop-color="rgb(31,100,132)"/>
	</linearGradient>
	<linearGradient id="Gradient34" gradientUnits="userSpaceOnUse" x1="990.626" y1="805.926" x2="968.869" y2="692.362">
		<stop class="stop0" offset="0" stop-opacity="1" stop-color="rgb(31,117,155)"/>
		<stop class="stop1" offset="1" stop-opacity="1" stop-color="rgb(95,189,228)"/>
	</linearGradient>
</defs>
<path transform="translate(0,0)" fill="rgb(2,32,61)" d="M 0 0 L 2048 0 L 2048 2048 L 0 2048 L 0 0 z"/>
<path transform="translate(0,0)" fill="rgb(2,25,43)" d="M 600.947 988.994 C 600.495 985.711 597.991 978.251 597.037 974.535 C 594.824 966.056 593.22 957.43 592.238 948.722 C 588.465 913.951 591.994 872.918 590.325 837.012 C 587.463 775.455 620.873 710.94 663.981 667.446 C 754.736 575.879 894.082 539.594 1019.65 537.505 C 1123.02 535.785 1233.79 559.183 1322.06 614 C 1334.22 621.551 1359.77 639.378 1369.58 649.078 L 1368.72 650.331 C 1407.53 686.4 1435.55 721.418 1451.59 772.981 C 1456.76 789.576 1460.3 804.71 1460.88 822.2 C 1461.08 829.525 1461.05 836.854 1460.82 844.177 C 1461.19 858.506 1460.67 873.016 1460.31 887.357 C 1459.37 887.809 1458.43 888.26 1457.49 888.712 C 1451.93 902.479 1447.09 916.404 1441.1 930.061 C 1440.79 930.76 1440.52 932.249 1440.42 932.745 L 1436.75 940.16 C 1438.14 942.709 1438.21 941.652 1438.02 943.926 C 1436.8 958.311 1443.42 1010.57 1437.26 1021.62 C 1432.84 1032.86 1420.75 1052.19 1419.85 1060.25 L 1420.68 1061.46 C 1431.53 1077.37 1426.3 1082.05 1443.94 1091.81 C 1466.14 1109.82 1492.37 1128.63 1515.43 1146 C 1551.4 1173.08 1587.19 1200.39 1622.81 1227.93 C 1627.18 1231.2 1631.6 1234.39 1636.09 1237.48 C 1668.04 1262.52 1701.15 1286.23 1733.03 1311.35 C 1751.58 1325.97 1770.2 1334.53 1772.9 1361.06 C 1775.57 1387.41 1763.99 1412.84 1748.63 1433.52 C 1751.88 1439.75 1764 1445.49 1770.52 1460.14 C 1794.79 1514.64 1714.72 1591.17 1661.93 1575.89 C 1652.31 1573.11 1607.69 1536.74 1596.31 1527.96 C 1566.04 1504.83 1535.91 1481.52 1505.92 1458.03 C 1500.36 1453.66 1475.42 1433.37 1470.96 1432.41 C 1460.16 1430.26 1396.86 1372.64 1380.69 1364.82 C 1376.44 1368.79 1384.81 1376.58 1384.36 1379.03 C 1382.34 1390.1 1366.24 1401.01 1359.48 1410.43 C 1357.52 1413.25 1335.19 1430.54 1334.9 1430.57 C 1315.83 1432.77 1320.04 1444.67 1310.28 1452.41 C 1295.13 1463.01 1279.42 1473.61 1263.66 1483.39 C 1247.07 1493.68 1233.3 1492.76 1219.05 1510.15 C 1215.55 1514.41 1180.68 1522.56 1173.47 1527.4 C 1170.54 1529.36 1159.11 1533.48 1155.32 1535.7 C 1140.72 1537.92 1123.47 1544.07 1109.59 1547.04 C 1086.64 1551.95 1061.61 1551.26 1038.26 1553.13 C 1030.04 1553.64 1018.62 1551.17 1011.62 1551.57 C 995.537 1552.48 965.111 1555.32 950.443 1549.34 C 944.094 1551.65 932.983 1551.39 926.745 1548.87 L 925.159 1546.99 C 926.117 1541.3 930.42 1542.66 930.087 1539.77 C 921.791 1539.22 914.102 1551.13 904.523 1552.59 C 895.986 1553.89 883.154 1536.38 876.007 1538.56 C 861.848 1542.87 797.393 1591.22 788.005 1591.32 C 786.976 1591.44 669.738 1664.43 660.216 1670.18 L 491.22 1563.57 C 465.563 1547.12 441.021 1532.94 416.087 1515.3 C 416.176 1502.46 414.651 1452.64 418.48 1443.82 L 415.394 1441.36 C 412.638 1435.08 413.992 1376.54 414.004 1364.55 C 425.69 1354.63 457.196 1336.88 471.963 1326.45 C 477.486 1324.76 511.156 1301.59 517.794 1297.29 L 606.967 1240.02 C 606.34 1228.1 604.005 1190.51 611.185 1182.49 C 625.388 1172.88 645.841 1160.69 660.715 1151.92 L 664.231 1149.24 C 658.8 1143.49 641.143 1118.98 636.693 1112.14 C 616.413 1080.98 592.156 1026.6 600.947 988.994 z"/>
<path transform="translate(0,0)" fill="rgb(129,253,188)" d="M 600.947 988.994 C 600.495 985.711 597.991 978.251 597.037 974.535 C 594.824 966.056 593.22 957.43 592.238 948.722 C 588.465 913.951 591.994 872.918 590.325 837.012 C 587.463 775.455 620.873 710.94 663.981 667.446 C 754.736 575.879 894.082 539.594 1019.65 537.505 C 1123.02 535.785 1233.79 559.183 1322.06 614 C 1334.22 621.551 1359.77 639.378 1369.58 649.078 L 1368.72 650.331 C 1407.53 686.4 1435.55 721.418 1451.59 772.981 C 1456.76 789.576 1460.3 804.71 1460.88 822.2 C 1461.08 829.525 1461.05 836.854 1460.82 844.177 C 1461.19 858.506 1460.67 873.016 1460.31 887.357 C 1459.37 887.809 1458.43 888.26 1457.49 888.712 C 1451.93 902.479 1447.09 916.404 1441.1 930.061 C 1440.79 930.76 1440.52 932.249 1440.42 932.745 L 1436.75 940.16 C 1416.19 976.425 1392.06 1004.23 1358.82 1029.65 C 1354.15 1033.22 1343.7 1041.21 1339.12 1043.57 C 1300.03 1073.74 1218.9 1105.08 1170.58 1114.29 C 1165.83 1116.9 1148.02 1119.57 1142 1120.68 C 1077.04 1132.57 992.506 1132.34 927.196 1123.31 C 904.512 1119.62 888.097 1116.45 865.798 1110.9 C 846.94 1106.04 828.075 1099.1 809.655 1092.64 C 807.526 1091.39 790.181 1084.43 787.03 1083.1 L 776.162 1078.36 C 777.653 1083.93 771.562 1097.94 771.402 1105.86 C 771.058 1122.8 778.146 1150.41 768.847 1165.23 C 763.983 1162.99 763.232 1162.26 758.11 1162.53 L 747.25 1155.21 C 744.534 1151.55 718.04 1134.86 711.805 1130.49 L 703.207 1123.63 C 696.503 1129.25 686.249 1134.56 681.634 1138.64 C 675.527 1142.09 670.146 1145.47 664.231 1149.24 C 658.8 1143.49 641.143 1118.98 636.693 1112.14 C 616.413 1080.98 592.156 1026.6 600.947 988.994 z"/>
<path transform="translate(0,0)" fill="url(#Gradient34)" d="M 885.956 710.068 C 892.731 706.92 914.707 702.015 923.003 700.312 C 968.057 691.263 1014.06 687.838 1059.96 690.117 C 1075.32 690.934 1089.12 692.946 1104.19 694.134 C 1116.38 696.589 1129 698.26 1141.07 701.003 C 1171.99 708.254 1202.08 718.656 1230.88 732.046 C 1233.81 733.392 1248.47 740.25 1250.5 742.196 C 1284.23 761.612 1325.75 791.745 1346.45 824.828 L 1345.81 825.686 L 1348.27 830.411 C 1337.39 833.561 1321.33 826.83 1309.99 825.626 C 1260.6 820.378 1211.42 828.384 1162.1 828.809 C 1156.24 828.859 1150.32 826.672 1145.15 824.176 C 1147.02 822.233 1147.68 821.595 1148.64 819.084 C 1133.61 828.261 1103.78 848.912 1090.12 855.698 C 1083.26 862.494 1038.45 889.912 1028.09 895.942 C 1022.64 899.323 1017.3 902.86 1012.05 906.548 C 1009.07 907.924 1004.77 910.963 1001.83 912.759 C 978.509 926.982 955.757 942.494 932.265 956.403 C 923.588 952.622 910.375 944.043 901.606 939.265 C 876.891 925.798 851.836 909.487 827.122 896.325 C 819.136 895.28 812.356 901.882 803.193 902.342 C 781.198 903.448 719.514 902.608 701.27 913.105 C 700.156 915.926 701.595 918.883 702.522 922.022 C 692.307 910.29 683.321 889.112 678.229 874.608 C 684.535 868.837 684.917 852.816 688.004 841.435 C 695.996 845.214 692.398 840.928 697.706 843.792 C 699.123 841.861 701.272 837.324 702.468 834.982 C 707.073 829.349 708.931 824.667 714.781 818.24 C 731.287 791.891 791.548 745.007 820.954 734.608 C 832.944 729.41 845.2 723.809 857.539 719.597 C 860.384 718.03 861.668 717.89 864.79 716.985 C 870.63 715.521 879.982 712.064 885.956 710.068 z"/>
<path transform="translate(0,0)" fill="url(#Gradient33)" d="M 889.425 784.808 C 898.352 786.656 919.023 779.507 932.265 782.421 L 934.608 783.073 L 937.051 829.688 C 942.345 824.326 1010.51 823.284 1020.71 826.103 L 1021.7 827.276 C 1019.73 829.207 1018.28 830.28 1016.75 832.601 C 1007.86 839.158 996.391 845.048 988.257 851.439 C 986.494 854.195 985.769 855.017 983.357 857.239 L 983.171 858.909 C 988.75 859.45 996.605 858.231 1002.28 858.476 C 1018.19 859.165 1033.01 857.352 1049.01 858.657 C 1056.81 859.293 1068.23 863.974 1074.45 863.724 C 1077.76 863.591 1083.55 855.181 1090.12 855.698 C 1083.26 862.494 1038.45 889.912 1028.09 895.942 C 1022.64 899.323 1017.3 902.86 1012.05 906.548 C 1009.07 907.924 1004.77 910.963 1001.83 912.759 C 978.509 926.982 955.757 942.494 932.265 956.403 C 923.588 952.622 910.375 944.043 901.606 939.265 C 876.891 925.798 851.836 909.487 827.122 896.325 C 819.136 895.28 812.356 901.882 803.193 902.342 C 781.198 903.448 719.514 902.608 701.27 913.105 C 700.156 915.926 701.595 918.883 702.522 922.022 C 692.307 910.29 683.321 889.112 678.229 874.608 C 684.535 868.837 684.917 852.816 688.004 841.435 C 695.996 845.214 692.398 840.928 697.706 843.792 C 699.123 841.861 701.272 837.324 702.468 834.982 C 707.073 829.349 708.931 824.667 714.781 818.24 C 713.928 821.292 713.1 820.508 712.939 823.535 C 745.153 817.166 776.3 804.719 809.394 801.021 C 812.667 800.656 825.486 799.595 827.656 798.402 C 831.233 800.665 834.31 798.777 838.101 797.238 C 844.521 793.972 843.694 794.594 844.817 787.83 C 844.935 789.941 845.036 795.112 845.646 796.804 C 851.092 793.327 861.703 792.438 868.078 791.63 C 875.186 790.728 875.105 788.903 880.264 784.86 C 884.732 784.032 885.138 783.781 889.425 784.808 z"/>
<path transform="translate(0,0)" fill="url(#Gradient32)" d="M 988.257 851.439 C 986.494 854.195 985.769 855.017 983.357 857.239 L 983.171 858.909 C 988.75 859.45 996.605 858.231 1002.28 858.476 C 1018.19 859.165 1033.01 857.352 1049.01 858.657 C 1056.81 859.293 1068.23 863.974 1074.45 863.724 C 1077.76 863.591 1083.55 855.181 1090.12 855.698 C 1083.26 862.494 1038.45 889.912 1028.09 895.942 C 1022.64 899.323 1017.3 902.86 1012.05 906.548 C 1009.07 907.924 1004.77 910.963 1001.83 912.759 C 978.509 926.982 955.757 942.494 932.265 956.403 C 923.588 952.622 910.375 944.043 901.606 939.265 C 876.891 925.798 851.836 909.487 827.122 896.325 C 821.137 892.042 811.316 886.689 804.731 882.845 C 820.728 874.279 839.302 862.332 854.993 852.749 C 872.723 864.429 904.702 881.651 924.06 892.236 C 929.544 889.367 940.059 882.171 945.578 878.63 C 959.754 869.488 973.981 860.424 988.257 851.439 z"/>
<path transform="translate(0,0)" fill="url(#Gradient31)" d="M 844.817 787.83 C 844.935 789.941 845.036 795.112 845.646 796.804 C 846.153 808.627 846.474 822.974 847.586 834.668 L 844.092 836.071 C 837.915 836.859 828.344 835.744 821.949 836.792 C 801.972 840.062 779.104 842.09 759.46 845.762 C 745.891 848.403 732.408 851.462 719.028 854.935 C 713.918 856.28 696.002 861.492 691.587 861.749 L 688.588 867.479 C 687.052 864.888 695.967 847.21 697.706 843.792 C 699.123 841.861 701.272 837.324 702.468 834.982 C 707.073 829.349 708.931 824.667 714.781 818.24 C 713.928 821.292 713.1 820.508 712.939 823.535 C 745.153 817.166 776.3 804.719 809.394 801.021 C 812.667 800.656 825.486 799.595 827.656 798.402 C 831.233 800.665 834.31 798.777 838.101 797.238 C 844.521 793.972 843.694 794.594 844.817 787.83 z"/>
<path transform="translate(0,0)" fill="url(#Gradient30)" d="M 844.817 787.83 C 844.935 789.941 845.036 795.112 845.646 796.804 C 846.153 808.627 846.474 822.974 847.586 834.668 L 844.092 836.071 C 838.871 825.083 841.23 805.856 838.101 797.238 C 844.521 793.972 843.694 794.594 844.817 787.83 z"/>
<path transform="translate(0,0)" fill="url(#Gradient29)" d="M 889.425 784.808 C 898.352 786.656 919.023 779.507 932.265 782.421 L 934.608 783.073 L 937.051 829.688 L 936.328 830.771 L 936.984 831.584 L 935.602 832.395 C 930.199 832.463 929.296 833.344 928.268 828.124 C 919.344 827.476 902.931 832.398 897.2 829.969 L 890.279 833.969 L 891.284 834.368 L 890.285 835.094 C 881.737 835.761 878.902 832.421 872.163 832.165 C 864.718 831.882 855.894 836.084 847.586 834.668 C 846.474 822.974 846.153 808.627 845.646 796.804 C 851.092 793.327 861.703 792.438 868.078 791.63 C 875.186 790.728 875.105 788.903 880.264 784.86 C 884.732 784.032 885.138 783.781 889.425 784.808 z"/>
<path transform="translate(0,0)" fill="url(#Gradient28)" d="M 889.425 784.808 C 898.352 786.656 919.023 779.507 932.265 782.421 L 934.608 783.073 L 937.051 829.688 L 936.328 830.771 L 936.984 831.584 L 935.602 832.395 C 930.199 832.463 929.296 833.344 928.268 828.124 C 919.344 827.476 902.931 832.398 897.2 829.969 C 904.139 817.533 904.456 792.301 889.222 785.558 L 889.425 784.808 z"/>
<path transform="translate(0,0)" fill="rgb(64,165,197)" d="M 932.265 782.421 L 934.608 783.073 L 937.051 829.688 L 936.328 830.771 C 934.742 830.63 933.16 830.456 931.582 830.249 C 927.09 822.855 931.437 801.582 927.531 793.447 C 924.191 791.492 924.391 792.535 919.199 793.434 C 917.9 787.441 927.586 784.513 932.265 782.421 z"/>
<path transform="translate(0,0)" fill="url(#Gradient27)" d="M 845.646 796.804 C 851.092 793.327 861.703 792.438 868.078 791.63 C 875.186 790.728 875.105 788.903 880.264 784.86 C 884.732 784.032 885.138 783.781 889.425 784.808 L 889.222 785.558 C 884.279 785.776 879.67 785.665 876.264 789.924 C 867.947 800.322 869.472 822.973 879.614 831.726 C 881.929 833.724 887.186 833.759 890.279 833.969 L 891.284 834.368 L 890.285 835.094 C 881.737 835.761 878.902 832.421 872.163 832.165 C 864.718 831.882 855.894 836.084 847.586 834.668 C 846.474 822.974 846.153 808.627 845.646 796.804 z"/>
<path transform="translate(0,0)" fill="url(#Gradient26)" d="M 882.356 791.502 C 898.362 791.967 894.769 818.866 890.879 828.658 C 873.662 829.854 876.974 800.454 882.356 791.502 z"/>
<path transform="translate(0,0)" fill="url(#Gradient25)" d="M 1127.92 760.618 L 1130.15 759.829 C 1141.46 762.19 1160.38 760.375 1172.26 760.617 C 1186.19 760.901 1255.65 761.287 1262.47 752.38 C 1261.45 748.715 1253.67 747.541 1250.5 742.196 C 1284.23 761.612 1325.75 791.745 1346.45 824.828 L 1345.81 825.686 L 1348.27 830.411 C 1337.39 833.561 1321.33 826.83 1309.99 825.626 C 1260.6 820.378 1211.42 828.384 1162.1 828.809 C 1156.24 828.859 1150.32 826.672 1145.15 824.176 C 1147.02 822.233 1147.68 821.595 1148.64 819.084 C 1158.44 810.949 1174.94 803.191 1186.23 793.867 C 1171.43 784.049 1143.98 769.054 1127.92 760.618 z"/>
<path transform="translate(0,0)" fill="rgb(129,253,188)" d="M 1127.92 760.618 C 1143.98 769.054 1171.43 784.049 1186.23 793.867 C 1174.94 803.191 1158.44 810.949 1148.64 819.084 C 1133.61 828.261 1103.78 848.912 1090.12 855.698 C 1083.55 855.181 1077.76 863.591 1074.45 863.724 C 1068.23 863.974 1056.81 859.293 1049.01 858.657 C 1033.01 857.352 1018.19 859.165 1002.28 858.476 C 996.605 858.231 988.75 859.45 983.171 858.909 L 983.357 857.239 C 985.769 855.017 986.494 854.195 988.257 851.439 C 996.391 845.048 1007.86 839.158 1016.75 832.601 C 1021.83 829.924 1027.52 825.948 1032.36 822.767 C 1063.81 802.074 1096.25 782.323 1127.2 760.913 L 1127.92 760.618 z"/>
<path transform="translate(0,0)" fill="url(#Gradient24)" d="M 934.608 783.073 L 935.239 781.557 C 938.155 779.081 946.779 778.631 950.703 778.052 C 996.264 771.319 1041.58 765.405 1087.65 763.078 C 1100.71 762.418 1114.12 760.736 1127.2 760.913 C 1096.25 782.323 1063.81 802.074 1032.36 822.767 C 1027.52 825.948 1021.83 829.924 1016.75 832.601 C 1018.28 830.28 1019.73 829.207 1021.7 827.276 L 1020.71 826.103 C 1010.51 823.284 942.345 824.326 937.051 829.688 L 934.608 783.073 z"/>
<path transform="translate(0,0)" fill="rgb(129,202,219)" d="M 885.956 710.068 C 887.417 717.887 887.552 746.18 887.591 755.264 C 884.801 756.683 886.271 756.331 882.977 756.131 C 880.781 752.04 879.765 725.42 878.974 718.396 C 877.081 721.015 875.613 723.903 872.75 724.893 C 868.893 722.328 869.996 719.972 864.79 716.985 C 870.63 715.521 879.982 712.064 885.956 710.068 z"/>
<path transform="translate(0,0)" fill="rgb(129,202,219)" d="M 857.539 719.597 C 855.768 722.407 844.708 725.853 840.454 727.807 C 840.487 734.911 840.873 753.288 836.626 758.527 C 831.687 756.282 831.411 736.595 831.497 731.467 C 827.862 733.159 824.865 735.088 820.954 734.608 C 832.944 729.41 845.2 723.809 857.539 719.597 z"/>
<path transform="translate(0,0)" fill="rgb(64,165,197)" d="M 827.656 798.402 C 833.959 793.076 837.465 791.012 844.817 787.83 C 843.694 794.594 844.521 793.972 838.101 797.238 C 834.31 798.777 831.233 800.665 827.656 798.402 z"/>
<path transform="translate(0,0)" fill="rgb(129,202,219)" d="M 1016.04 701.887 C 1034.17 704.73 1034.6 724.627 1030.73 739.517 C 1029.45 744.431 1025.99 746.535 1021.47 748.442 C 999.894 748.51 1002.95 728.098 1003.19 712.026 C 1007.62 704.972 1008.14 704.264 1016.04 701.887 z"/>
<path transform="translate(0,0)" fill="rgb(64,165,197)" d="M 1014.01 706.654 C 1029.39 707.78 1028.27 736.008 1020.86 744.401 C 1005.36 743.963 1008.42 715.556 1014.01 706.654 z"/>
<path transform="translate(0,0)" fill="rgb(129,202,219)" d="M 929.494 705.718 L 931.126 706.03 C 933.583 710.029 934.21 746.694 933.343 752.03 C 930.421 753.648 931.895 753.369 928.873 753.325 C 926.83 750.441 927.176 746.456 927.035 742.755 C 926.488 733.268 925.768 723.792 924.875 714.332 C 921.662 716.125 919.591 717.884 916.093 717.383 L 915.376 715.856 C 919.44 709.296 922.494 708.774 929.494 705.718 z"/>
<path transform="translate(0,0)" fill="rgb(129,202,219)" d="M 975.166 703.942 C 976.119 704.121 975.496 703.927 976.785 705.046 C 977.842 712.437 979.81 742.793 979.247 749.954 C 976.322 751.322 977.911 750.911 974.17 750.463 C 972.309 748.244 972.56 743.454 972.385 740.244 C 971.702 731.919 971.691 720.456 971.415 711.873 C 967.981 713.383 965.075 715.199 961.504 714.557 L 961.133 712.965 C 965.918 706.828 967.715 706.635 975.166 703.942 z"/>
<path transform="translate(0,0)" fill="url(#Gradient23)" d="M 1148.64 819.084 C 1147.68 821.595 1147.02 822.233 1145.15 824.176 C 1150.32 826.672 1156.24 828.859 1162.1 828.809 C 1211.42 828.384 1260.6 820.378 1309.99 825.626 C 1321.33 826.83 1337.39 833.561 1348.27 830.411 L 1345.81 825.686 L 1346.45 824.828 C 1352.66 832.873 1355.59 839.666 1360.35 846.158 C 1362.45 850.392 1365.09 855.47 1367.09 859.577 C 1368.68 862.844 1366.47 869.365 1369.32 873.467 C 1371.37 873.861 1371.98 873.933 1374.06 874.017 L 1375.59 875.699 C 1370.26 888.785 1363.26 905.898 1354.77 917.082 C 1308.85 987.645 1218.54 1029.61 1138.16 1046.33 C 1016.68 1071.6 877.997 1057.29 772.546 988.319 C 755.383 977.093 709.338 940.039 702.522 922.022 C 701.595 918.883 700.156 915.926 701.27 913.105 C 719.514 902.608 781.198 903.448 803.193 902.342 C 812.356 901.882 819.136 895.28 827.122 896.325 C 851.836 909.487 876.891 925.798 901.606 939.265 C 910.375 944.043 923.588 952.622 932.265 956.403 C 955.757 942.494 978.509 926.982 1001.83 912.759 C 1004.77 910.963 1009.07 907.924 1012.05 906.548 C 1017.3 902.86 1022.64 899.323 1028.09 895.942 C 1038.45 889.912 1083.26 862.494 1090.12 855.698 C 1103.78 848.912 1133.61 828.261 1148.64 819.084 z"/>
<path transform="translate(0,0)" fill="url(#Gradient22)" d="M 1148.64 819.084 C 1147.68 821.595 1147.02 822.233 1145.15 824.176 C 1150.32 826.672 1156.24 828.859 1162.1 828.809 C 1211.42 828.384 1260.6 820.378 1309.99 825.626 C 1321.33 826.83 1337.39 833.561 1348.27 830.411 L 1345.81 825.686 L 1346.45 824.828 C 1352.66 832.873 1355.59 839.666 1360.35 846.158 C 1362.45 850.392 1365.09 855.47 1367.09 859.577 C 1368.68 862.844 1366.47 869.365 1369.32 873.467 C 1371.37 873.861 1371.98 873.933 1374.06 874.017 L 1375.59 875.699 C 1370.26 888.785 1363.26 905.898 1354.77 917.082 C 1348.52 909.042 1332.66 906.604 1323.71 910.031 C 1316.39 930.68 1299.69 927.723 1292.53 907.927 L 1291 907.26 C 1289.73 899.184 1283.66 900.544 1276.53 900.357 L 1268.49 904.509 C 1268.45 909.432 1268.63 915.779 1267.86 920.52 C 1267.86 925.145 1267.78 925.379 1264.6 928.352 L 1263.32 928.234 C 1257.21 922.954 1260.24 898.844 1257.47 888.091 L 1255.86 887.738 L 1256.57 890.55 C 1251.12 898.472 1231.74 893.83 1223.17 901.427 C 1222.14 905.426 1222.86 910.215 1221.77 915.22 C 1221.91 920.025 1222.71 925.916 1220.6 930.013 C 1218.03 930.56 1219.28 930.664 1216.83 929.192 C 1213.09 923.066 1213.56 906.032 1213.11 897.941 C 1205.23 895.761 1187.95 896.281 1184.25 905.014 C 1184.29 908.608 1185.11 917.127 1183.84 919.579 L 1182.52 919.942 C 1182.04 921.335 1181.52 922.715 1180.96 924.078 C 1177.82 931.72 1170.12 937.037 1161.91 932.459 C 1154.63 928.396 1153.46 922.438 1151.56 914.983 L 1149.77 914.263 C 1148.44 907.185 1151.6 907.12 1148.98 902.35 C 1142.89 899.054 1132.87 896.579 1128.16 903.095 C 1128.17 909.751 1128.89 913.665 1127.89 920.348 C 1126.75 914.032 1126.14 893.403 1125.78 886.069 C 1121.58 887.962 1108.91 892.677 1109.06 897.303 L 1111.5 898.24 C 1105.69 902.875 1090.99 893.239 1089.91 912.35 C 1089.85 919.808 1089.79 930.452 1083.68 935.296 C 1068.36 947.443 1061.04 930.012 1058.05 919.258 L 1056.63 917.992 C 1056.47 913.932 1056.42 909.869 1056.49 905.807 C 1052.26 905.655 1041.98 904.668 1038.91 907.236 C 1033.52 911.745 1034.93 920.18 1033.29 924.399 C 1033.15 916.717 1033.25 907.282 1031.78 899.67 C 1031.27 897.031 1030.52 897.311 1028.09 895.942 C 1038.45 889.912 1083.26 862.494 1090.12 855.698 C 1103.78 848.912 1133.61 828.261 1148.64 819.084 z"/>
<path transform="translate(0,0)" fill="rgb(20,78,100)" d="M 1292.53 907.927 C 1291.72 897.547 1290.65 887.347 1297.74 878.638 C 1302.81 872.411 1310.98 871.778 1316.66 877.53 C 1325.01 886.004 1324.72 899.034 1323.71 910.031 C 1316.39 930.68 1299.69 927.723 1292.53 907.927 z"/>
<path transform="translate(0,0)" fill="rgb(2,32,61)" d="M 1305.97 879.453 C 1318.99 881.597 1320.43 912.236 1310.75 920.309 C 1309.24 919.846 1305.35 918.691 1304.45 917.561 C 1297.25 908.488 1298.1 887.89 1305.97 879.453 z"/>
<path transform="translate(0,0)" fill="rgb(43,128,147)" d="M 1151.56 914.983 C 1151.38 906.071 1149.82 895.756 1156.32 888.978 C 1159.04 886.113 1162.81 884.496 1166.75 884.509 C 1184.25 884.581 1183.14 908.088 1182.52 919.942 C 1182.04 921.335 1181.52 922.715 1180.96 924.078 C 1177.82 931.72 1170.12 937.037 1161.91 932.459 C 1154.63 928.396 1153.46 922.438 1151.56 914.983 z"/>
<path transform="translate(0,0)" fill="rgb(2,32,61)" d="M 1163.67 889.499 C 1179.84 892.716 1177.09 918.907 1170.08 929.472 L 1166.04 928.57 C 1156.84 921.094 1156.71 898.466 1163.67 889.499 z"/>
<path transform="translate(0,0)" fill="rgb(43,128,147)" d="M 1058.05 919.258 C 1059.88 912.252 1057.18 906.045 1060.97 898.908 C 1065.44 890.497 1071.86 886.399 1080.63 892.874 C 1088.35 898.58 1088.63 903.401 1089.91 912.35 C 1089.85 919.808 1089.79 930.452 1083.68 935.296 C 1068.36 947.443 1061.04 930.012 1058.05 919.258 z"/>
<path transform="translate(0,0)" fill="rgb(2,32,61)" d="M 1071.9 895.457 C 1082.02 898.72 1082.02 908.61 1082.25 918.296 C 1082.41 924.966 1081.52 930.582 1076.5 935.228 C 1074.24 934.561 1071.68 933.949 1070.39 932.006 C 1064.22 922.707 1062.8 902.979 1071.9 895.457 z"/>
<path transform="translate(0,0)" fill="rgb(43,128,147)" d="M 1255.86 887.738 C 1251.75 888.484 1251.84 889.193 1248.81 887.765 C 1250.48 883.438 1261.6 878.664 1265.96 876.922 C 1266.25 886.299 1266.47 911.95 1267.86 920.52 C 1267.86 925.145 1267.78 925.379 1264.6 928.352 L 1263.32 928.234 C 1257.21 922.954 1260.24 898.844 1257.47 888.091 L 1255.86 887.738 z"/>
<path transform="translate(0,0)" fill="rgb(43,128,147)" d="M 1213.11 897.941 C 1213.01 894.24 1213.66 891.952 1211.91 889.474 C 1207.64 890.483 1206.78 891.491 1203.42 890.252 C 1204.18 885.782 1215.2 881.963 1219.46 880.109 C 1220.01 889.323 1220.56 906.694 1221.77 915.22 C 1221.91 920.025 1222.71 925.916 1220.6 930.013 C 1218.03 930.56 1219.28 930.664 1216.83 929.192 C 1213.09 923.066 1213.56 906.032 1213.11 897.941 z"/>
<path transform="translate(0,0)" fill="rgb(43,128,147)" d="M 1125.78 886.069 C 1126.14 893.403 1126.75 914.032 1127.89 920.348 C 1127.81 925.58 1128.85 931.172 1126.98 935.603 C 1124.1 936.44 1125.55 936.422 1122.55 935.004 C 1117.23 926.276 1122.38 907.814 1118.62 897.03 C 1115.94 895.932 1115.14 897.006 1111.5 898.24 L 1109.06 897.303 C 1108.91 892.677 1121.58 887.962 1125.78 886.069 z"/>
<path transform="translate(0,0)" fill="rgb(43,128,147)" d="M 1012.05 906.548 C 1017.3 902.86 1022.64 899.323 1028.09 895.942 C 1030.52 897.311 1031.27 897.031 1031.78 899.67 C 1033.25 907.282 1033.15 916.717 1033.29 924.399 C 1032.91 932.467 1035.38 932.891 1031.56 941.927 L 1031.7 940.641 L 1030.92 942.746 L 1029.45 942.095 C 1024.76 931.674 1025.11 915.691 1024.89 904.228 C 1018.9 907.211 1017.93 908.429 1012.05 906.548 z"/>
<path transform="translate(0,0)" fill="rgb(26,64,47)" d="M 1029.03 970.915 C 1049.96 970.841 1051.23 996.202 1045.65 1011.46 C 1043.9 1016.23 1039.93 1019.12 1035.19 1020.74 C 1011.4 1020.97 1009.11 979.013 1029.03 970.915 z"/>
<path transform="translate(0,0)" fill="rgb(0,1,1)" d="M 1030.87 976.422 C 1043.76 981.786 1042.61 1006.84 1033.68 1016.51 C 1023.66 1013.32 1023.84 1000.79 1024.38 991.892 C 1024.84 984.545 1025.55 981.712 1030.87 976.422 z"/>
<path transform="translate(0,0)" fill="rgb(26,64,47)" d="M 1121.77 966.255 C 1130.77 965.871 1132.71 967.384 1138.42 974.202 C 1141.48 989.082 1142.35 993.281 1137.98 1008 C 1133.77 1011.78 1132.97 1012.61 1127.87 1014.93 C 1102.67 1014.2 1101.99 971.459 1121.77 966.255 z"/>
<path transform="translate(0,0)" fill="rgb(0,1,1)" d="M 1122.3 971.448 C 1132.59 973.687 1132.57 984.013 1132.72 993.25 C 1132.81 999.596 1132.26 1005.66 1127.39 1010.14 C 1112.78 1006.81 1114.84 980.978 1122.3 971.448 z"/>
<path transform="translate(0,0)" fill="url(#Gradient21)" d="M 935.384 977.042 C 963.083 977.382 957.094 1021.93 944.246 1025.32 C 942.27 1025.27 933.454 1025.11 932.205 1024.48 C 920.769 1018.69 921.048 994.499 925.664 984.596 C 927.887 979.826 931.135 978.568 935.384 977.042 z"/>
<path transform="translate(0,0)" fill="rgb(0,1,1)" d="M 937.643 981.502 C 944.956 984.164 947.003 996.41 947.079 1003.18 C 947.18 1012.22 947.212 1015.05 940.954 1021.48 C 935.778 1020.59 933.622 1015.96 930.944 1011.87 C 930.877 1004.27 930.894 996.678 930.996 989.083 L 937.643 981.502 z"/>
<path transform="translate(0,0)" fill="url(#Gradient20)" d="M 1212.81 960.211 C 1231.87 958.832 1234.36 970.044 1234.35 987.866 C 1234.35 995.904 1231.79 1002.86 1225.71 1008.33 C 1203.67 1008.99 1203.06 999.25 1203.5 977.538 C 1203.64 970.204 1207.07 964.698 1212.81 960.211 z"/>
<path transform="translate(0,0)" fill="rgb(0,1,1)" d="M 1215.17 964.586 C 1231.15 965.909 1230.57 993.352 1224.04 1002.4 C 1221.74 1002.7 1218.55 1003.12 1216.66 1001.86 C 1207.78 995.909 1210.82 971.611 1215.17 964.586 z"/>
<path transform="translate(0,0)" fill="rgb(26,64,47)" d="M 1081.28 968.734 C 1083.04 969.478 1082.23 969.07 1083.58 971.003 C 1084.55 979.73 1089.04 1014.08 1081.6 1017.89 L 1080.02 1017.24 C 1078.01 1014.22 1078.22 1010.49 1077.99 1006.76 C 1077 997.011 1076.23 988.425 1075.78 978.588 C 1071.73 980.356 1070.06 981.658 1066.05 980.811 L 1065.82 979.039 C 1070.96 972.159 1073.35 972.012 1081.28 968.734 z"/>
<path transform="translate(0,0)" fill="rgb(26,64,47)" d="M 1174.65 962.907 L 1176.25 963.394 C 1179.02 970.314 1181.05 1006.04 1174.8 1012.15 C 1172.33 1009.61 1171.72 1007.81 1171.34 1004.25 C 1171.03 993.281 1170.1 981.755 1169.73 970.543 C 1166.13 972.297 1165.69 972.616 1161.82 973.3 L 1160.45 972.323 C 1162.66 967.224 1169.72 964.971 1174.65 962.907 z"/>
<path transform="translate(0,0)" fill="rgb(26,64,47)" d="M 989.117 975.103 C 991.634 978.243 993.095 1019.22 990.863 1022.26 C 986.429 1021.6 988.104 1022.58 985.23 1020.06 C 984.62 1016.19 984.882 1013.69 985.043 1009.75 C 984.305 1000.94 983.694 992.117 983.211 983.288 C 979.116 985.217 977.576 986.51 973.748 985.591 L 973.645 983.739 C 979.015 977.325 981.199 977.464 989.117 975.103 z"/>
<path transform="translate(0,0)" fill="rgb(48,250,157)" d="M 596.684 792.377 C 601.547 785.997 605.084 758.318 612.787 749.996 C 611.966 753.651 611.376 753.43 612.489 756.378 C 622.057 760.091 638.873 746.335 646.078 745.465 C 655.132 744.371 676.685 742.18 683.864 748.23 C 684.277 748.516 686.588 751.023 686.545 751.3 C 685.014 761.064 672.553 780.623 674.509 790.24 C 678.4 777.293 681.461 767.913 687.543 755.888 C 688.273 759.653 687.784 760.176 686.299 763.653 C 686.849 766.031 686.907 766.307 687.768 768.612 C 691.882 779.628 688.337 796.953 688.99 808.998 C 689.417 816.888 689.584 826.634 690.681 834.078 L 688.004 841.435 C 684.917 852.816 684.535 868.837 678.229 874.608 C 683.321 889.112 692.307 910.29 702.522 922.022 C 709.338 940.039 755.383 977.093 772.546 988.319 C 877.997 1057.29 1016.68 1071.6 1138.16 1046.33 C 1218.54 1029.61 1308.85 987.645 1354.77 917.082 C 1363.26 905.898 1370.26 888.785 1375.59 875.699 L 1377.57 868.595 C 1381.77 854.02 1381.1 846.357 1383.81 834.299 L 1384.76 835.13 C 1386.48 815.201 1374.36 781.599 1397.18 772.326 C 1407.77 768.022 1407.99 760.104 1420.29 760.526 L 1421.7 761.435 C 1445.72 776.787 1446.72 749.946 1454.86 790.658 C 1456.77 800.217 1458.35 806.868 1458.84 817.871 C 1459.11 823.834 1459.36 839.216 1460.82 844.177 C 1461.19 858.506 1460.67 873.016 1460.31 887.357 C 1459.37 887.809 1458.43 888.26 1457.49 888.712 C 1451.93 902.479 1447.09 916.404 1441.1 930.061 C 1440.79 930.76 1440.52 932.249 1440.42 932.745 L 1436.75 940.16 C 1416.19 976.425 1392.06 1004.23 1358.82 1029.65 C 1354.15 1033.22 1343.7 1041.21 1339.12 1043.57 C 1300.03 1073.74 1218.9 1105.08 1170.58 1114.29 C 1165.83 1116.9 1148.02 1119.57 1142 1120.68 C 1077.04 1132.57 992.506 1132.34 927.196 1123.31 C 904.512 1119.62 888.097 1116.45 865.798 1110.9 C 846.94 1106.04 828.075 1099.1 809.655 1092.64 C 807.526 1091.39 790.181 1084.43 787.03 1083.1 L 776.162 1078.36 C 768.211 1074.58 760.386 1070.54 752.7 1066.25 L 752.923 1064.67 C 739.52 1056.19 724.201 1048.19 710.756 1039.47 C 703.495 1034.76 677.149 1008.74 671.793 1007.8 C 642.938 985.503 616.173 941.307 602.647 907.22 C 602.42 904.046 599.527 894.334 598.58 890.878 C 598.494 890.138 598.395 889.4 598.283 888.664 C 597.468 883.333 596.703 882.559 592.845 879.664 C 591.906 860.207 589.977 809.398 596.684 792.377 z"/>
<path transform="translate(0,0)" fill="url(#Gradient19)" d="M 798.059 1071.33 C 777.006 1064.71 718.783 1032.92 702.901 1018.17 L 702.703 1016.73 C 728.166 1031.36 749.143 1047.92 777.056 1060.75 C 874.881 1105.71 984 1121.04 1090.86 1111.01 C 1098.46 1110.3 1157.73 1101.04 1158.02 1101.13 L 1155.86 1102.71 C 1155.33 1106.97 1154.56 1110.77 1155.21 1114.97 C 1160.9 1117.41 1168.27 1110.4 1170.58 1114.29 C 1165.83 1116.9 1148.02 1119.57 1142 1120.68 C 1077.04 1132.57 992.506 1132.34 927.196 1123.31 C 904.512 1119.62 888.097 1116.45 865.798 1110.9 C 846.94 1106.04 828.075 1099.1 809.655 1092.64 C 807.526 1091.39 790.181 1084.43 787.03 1083.1 L 776.162 1078.36 C 768.211 1074.58 760.386 1070.54 752.7 1066.25 L 752.923 1064.67 C 766.411 1072.09 780.951 1077.97 794.523 1084.87 L 795.846 1084.16 C 796.149 1078.87 796.04 1076.35 798.059 1071.33 z"/>
<path transform="translate(0,0)" fill="rgb(125,247,210)" d="M 1275.73 1064.73 C 1278.79 1067.98 1280.02 1069.24 1283.49 1071.98 C 1290.89 1073.16 1329.82 1047.81 1337.66 1042.88 L 1339.12 1043.57 C 1300.03 1073.74 1218.9 1105.08 1170.58 1114.29 C 1168.27 1110.4 1160.9 1117.41 1155.21 1114.97 C 1154.56 1110.77 1155.33 1106.97 1155.86 1102.71 L 1158.02 1101.13 C 1161.15 1101.78 1162.95 1103.11 1165.7 1104.72 C 1170.3 1104.2 1177.33 1096.3 1182.6 1094.91 C 1212.95 1086.91 1241.76 1076.44 1270.94 1065.05 C 1276.07 1063.05 1279.52 1060.82 1285.18 1059.06 C 1284.28 1060.97 1278.21 1063.46 1275.73 1064.73 z"/>
<path transform="translate(0,0)" fill="rgb(3,90,30)" d="M 687.543 755.888 C 688.273 759.653 687.784 760.176 686.299 763.653 C 686.849 766.031 686.907 766.307 687.768 768.612 C 691.882 779.628 688.337 796.953 688.99 808.998 C 689.417 816.888 689.584 826.634 690.681 834.078 L 688.004 841.435 C 684.917 852.816 684.535 868.837 678.229 874.608 C 668.432 846.773 668.974 818.944 674.509 790.24 C 678.4 777.293 681.461 767.913 687.543 755.888 z"/>
<path transform="translate(0,0)" fill="url(#Gradient18)" d="M 687.543 755.888 C 689.535 750.3 695.608 740.531 699.039 735.568 C 785.948 609.855 991.103 571.536 1130.75 603.513 C 1141.32 604.969 1152.92 608.168 1163.17 611.225 C 1162.35 616.235 1163.42 615.404 1165.03 620.283 C 1168.04 629.403 1168.08 646.339 1164.42 655.216 C 1163.78 656.762 1163.9 656.92 1163.78 658.414 C 1167.61 659.532 1175.28 662.017 1178.91 662.81 C 1186.05 665.117 1193.02 667.349 1200.07 669.931 L 1203.42 671.201 C 1206.41 672.29 1213.9 675.281 1216.63 675.586 C 1223.72 679.043 1230.87 682.384 1238.07 685.61 C 1237.85 680.988 1240.31 641.448 1241.03 640.254 C 1250.91 644.82 1272.51 656.115 1280.18 663.499 C 1294.65 672.425 1324.08 695.592 1333.55 708.836 C 1367.77 745.805 1384.06 784.209 1383.81 834.299 C 1381.1 846.357 1381.77 854.02 1377.57 868.595 L 1375.59 875.699 L 1374.06 874.017 C 1371.98 873.933 1371.37 873.861 1369.32 873.467 C 1366.47 869.365 1368.68 862.844 1367.09 859.577 C 1365.09 855.47 1362.45 850.392 1360.35 846.158 C 1355.59 839.666 1352.66 832.873 1346.45 824.828 C 1325.75 791.745 1284.23 761.612 1250.5 742.196 C 1248.47 740.25 1233.81 733.392 1230.88 732.046 C 1202.08 718.656 1171.99 708.254 1141.07 701.003 C 1129 698.26 1116.38 696.589 1104.19 694.134 C 1089.12 692.946 1075.32 690.934 1059.96 690.117 C 1014.06 687.838 968.057 691.263 923.003 700.312 C 914.707 702.015 892.731 706.92 885.956 710.068 C 879.982 712.064 870.63 715.521 864.79 716.985 C 861.668 717.89 860.384 718.03 857.539 719.597 C 845.2 723.809 832.944 729.41 820.954 734.608 C 791.548 745.007 731.287 791.891 714.781 818.24 C 708.931 824.667 707.073 829.349 702.468 834.982 C 701.272 837.324 699.123 841.861 697.706 843.792 C 692.398 840.928 695.996 845.214 688.004 841.435 L 690.681 834.078 C 689.584 826.634 689.417 816.888 688.99 808.998 C 688.337 796.953 691.882 779.628 687.768 768.612 C 686.907 766.307 686.849 766.031 686.299 763.653 C 687.784 760.176 688.273 759.653 687.543 755.888 z"/>
<path transform="translate(0,0)" fill="url(#Gradient17)" d="M 698.411 819.931 C 703.65 808.751 718.842 789.751 727.444 780.974 C 829.244 677.101 991.753 656.286 1129.4 678.896 C 1140.11 680.655 1150.87 682.081 1160.37 687.498 C 1169.97 692.73 1181.92 693.483 1192.1 697.84 C 1190.85 698.138 1190.31 698.501 1189.22 698.134 C 1179.15 694.737 1166.5 698.459 1157.6 697.423 C 1140.16 695.392 1127.5 692.191 1109.54 692.151 L 1126.33 695.079 C 1119.44 694.782 1112.49 693.672 1105.64 692.736 L 1104.19 694.134 C 1089.12 692.946 1075.32 690.934 1059.96 690.117 C 1014.06 687.838 968.057 691.263 923.003 700.312 C 914.707 702.015 892.731 706.92 885.956 710.068 C 879.982 712.064 870.63 715.521 864.79 716.985 C 861.668 717.89 860.384 718.03 857.539 719.597 C 845.2 723.809 832.944 729.41 820.954 734.608 C 791.548 745.007 731.287 791.891 714.781 818.24 C 708.931 824.667 707.073 829.349 702.468 834.982 C 701.272 837.324 699.123 841.861 697.706 843.792 C 692.398 840.928 695.996 845.214 688.004 841.435 L 690.681 834.078 C 693.472 828.013 694.769 825.562 698.411 819.931 z"/>
<path transform="translate(0,0)" fill="rgb(70,101,107)" d="M 698.411 819.931 C 696.707 832.808 705.478 824.616 702.468 834.982 C 701.272 837.324 699.123 841.861 697.706 843.792 C 692.398 840.928 695.996 845.214 688.004 841.435 L 690.681 834.078 C 693.472 828.013 694.769 825.562 698.411 819.931 z"/>
<path transform="translate(0,0)" fill="url(#Gradient16)" d="M 1104.19 694.134 L 1105.64 692.736 C 1112.49 693.672 1119.44 694.782 1126.33 695.079 L 1109.54 692.151 C 1127.5 692.191 1140.16 695.392 1157.6 697.423 C 1166.5 698.459 1179.15 694.737 1189.22 698.134 C 1190.31 698.501 1190.85 698.138 1192.1 697.84 C 1200.27 699.528 1211.95 704.641 1219.88 708.064 C 1262.39 726.423 1295.43 749.098 1327.67 782.188 C 1339.99 797.235 1352.12 809.458 1359.54 827.984 C 1360.42 833.559 1361.44 840.624 1360.35 846.158 C 1355.59 839.666 1352.66 832.873 1346.45 824.828 C 1325.75 791.745 1284.23 761.612 1250.5 742.196 C 1248.47 740.25 1233.81 733.392 1230.88 732.046 C 1202.08 718.656 1171.99 708.254 1141.07 701.003 C 1129 698.26 1116.38 696.589 1104.19 694.134 z"/>
<path transform="translate(0,0)" fill="url(#Gradient15)" d="M 1333.55 708.836 C 1367.77 745.805 1384.06 784.209 1383.81 834.299 C 1381.1 846.357 1381.77 854.02 1377.57 868.595 L 1375.59 875.699 L 1374.06 874.017 C 1371.98 873.933 1371.37 873.861 1369.32 873.467 C 1366.47 869.365 1368.68 862.844 1367.09 859.577 C 1365.09 855.47 1362.45 850.392 1360.35 846.158 C 1361.44 840.624 1360.42 833.559 1359.54 827.984 C 1352.12 809.458 1339.99 797.235 1327.67 782.188 C 1335.47 784.281 1348.88 806.105 1354.84 813.409 L 1355.6 813.026 C 1352.77 807.435 1357.75 751.378 1357.06 743.03 C 1356.77 739.478 1336.63 714.771 1332.93 710.154 L 1333.55 708.836 z"/>
<path transform="translate(0,0)" fill="rgb(20,78,100)" d="M 1359.54 827.984 C 1367.49 838.613 1367.86 843.237 1369.67 856.418 C 1370.49 862.388 1370.93 867.011 1377.57 868.595 L 1375.59 875.699 L 1374.06 874.017 C 1371.98 873.933 1371.37 873.861 1369.32 873.467 C 1366.47 869.365 1368.68 862.844 1367.09 859.577 C 1365.09 855.47 1362.45 850.392 1360.35 846.158 C 1361.44 840.624 1360.42 833.559 1359.54 827.984 z"/>
<path transform="translate(0,0)" fill="rgb(30,228,161)" d="M 1241.03 640.254 C 1250.91 644.82 1272.51 656.115 1280.18 663.499 C 1274.13 663.661 1267.01 654.599 1262.76 654.984 C 1262.37 661.465 1264.93 678.537 1263.7 682.792 C 1257.83 703.032 1257.93 691.162 1272.33 703.037 C 1268.75 702.549 1242.44 688.454 1238.07 685.61 C 1237.85 680.988 1240.31 641.448 1241.03 640.254 z"/>
<path transform="translate(0,0)" fill="rgb(30,228,161)" d="M 1130.75 603.513 C 1141.32 604.969 1152.92 608.168 1163.17 611.225 C 1162.35 616.235 1163.42 615.404 1165.03 620.283 C 1168.04 629.403 1168.08 646.339 1164.42 655.216 C 1163.78 656.762 1163.9 656.92 1163.78 658.414 C 1152.8 656.976 1139.53 651.201 1125.13 649.535 C 1130.22 650.206 1142.49 652.269 1146.84 651.429 C 1149.52 647.382 1146.53 644.286 1146.46 638.893 C 1146.38 632.944 1151.07 615.086 1150.61 610.281 C 1143.85 607.14 1136.53 607.364 1130.75 603.513 z"/>
<path transform="translate(0,0)" fill="rgb(4,156,140)" d="M 602.647 907.22 C 616.173 941.307 642.938 985.503 671.793 1007.8 C 677.149 1008.74 703.495 1034.76 710.756 1039.47 C 724.201 1048.19 739.52 1056.19 752.923 1064.67 L 752.7 1066.25 C 760.386 1070.54 768.211 1074.58 776.162 1078.36 C 777.653 1083.93 771.562 1097.94 771.402 1105.86 C 771.058 1122.8 778.146 1150.41 768.847 1165.23 C 763.983 1162.99 763.232 1162.26 758.11 1162.53 L 747.25 1155.21 C 744.534 1151.55 718.04 1134.86 711.805 1130.49 L 703.207 1123.63 L 695.58 1117.28 C 691.581 1115.15 679.294 1103.79 675.691 1100.3 C 646.969 1072.46 610.332 1027.58 602.935 987.959 C 604.865 983.551 598.929 970.501 600.112 969.218 C 612.875 955.378 599.815 916.15 602.647 907.22 z"/>
<path transform="translate(0,0)" fill="url(#Gradient14)" d="M 714.495 1062.82 L 716.988 1045.23 C 724.856 1050.16 744.543 1062.77 752.7 1066.25 C 760.386 1070.54 768.211 1074.58 776.162 1078.36 C 777.653 1083.93 771.562 1097.94 771.402 1105.86 C 771.058 1122.8 778.146 1150.41 768.847 1165.23 C 763.983 1162.99 763.232 1162.26 758.11 1162.53 L 747.25 1155.21 C 744.534 1151.55 718.04 1134.86 711.805 1130.49 C 716.42 1114.54 714.476 1080.93 714.495 1062.82 z"/>
<path transform="translate(0,0)" fill="rgb(19,202,180)" d="M 671.793 1007.8 C 677.149 1008.74 703.495 1034.76 710.756 1039.47 C 724.201 1048.19 739.52 1056.19 752.923 1064.67 L 752.7 1066.25 C 744.543 1062.77 724.856 1050.16 716.988 1045.23 L 714.495 1062.82 C 714.476 1080.93 716.42 1114.54 711.805 1130.49 L 703.207 1123.63 L 695.58 1117.28 L 696.601 1116.76 C 700.798 1118.53 705.108 1123.18 709.963 1126.2 C 712.311 1123.12 711.751 1068.39 711.029 1061.82 C 710.368 1058.68 710.708 1058.24 710.82 1055.15 C 711.591 1033.9 683.933 1023.28 671.793 1007.8 z"/>
<path transform="translate(0,0)" fill="rgb(2,25,43)" d="M 600.947 988.994 C 600.495 985.711 597.991 978.251 597.037 974.535 C 594.824 966.056 593.22 957.43 592.238 948.722 C 588.465 913.951 591.994 872.918 590.325 837.012 C 587.463 775.455 620.873 710.94 663.981 667.446 C 754.736 575.879 894.082 539.594 1019.65 537.505 C 1123.02 535.785 1233.79 559.183 1322.06 614 C 1334.22 621.551 1359.77 639.378 1369.58 649.078 L 1368.72 650.331 C 1251.65 555.753 1103.27 528.002 955.683 543.329 C 841.072 555.232 720.742 599.867 645.791 691.081 C 625.151 716.369 601.657 759.817 596.684 792.377 C 589.977 809.398 591.906 860.207 592.845 879.664 C 596.703 882.559 597.468 883.333 598.283 888.664 C 598.395 889.4 598.494 890.138 598.58 890.878 C 599.527 894.334 602.42 904.046 602.647 907.22 C 599.815 916.15 612.875 955.378 600.112 969.218 C 598.929 970.501 604.865 983.551 602.935 987.959 C 610.332 1027.58 646.969 1072.46 675.691 1100.3 C 679.294 1103.79 691.581 1115.15 695.58 1117.28 L 703.207 1123.63 C 696.503 1129.25 686.249 1134.56 681.634 1138.64 C 675.527 1142.09 670.146 1145.47 664.231 1149.24 C 658.8 1143.49 641.143 1118.98 636.693 1112.14 C 616.413 1080.98 592.156 1026.6 600.947 988.994 z"/>
<path transform="translate(0,0)" fill="rgb(30,228,161)" d="M 592.845 879.664 C 596.703 882.559 597.468 883.333 598.283 888.664 C 598.395 889.4 598.494 890.138 598.58 890.878 C 599.527 894.334 602.42 904.046 602.647 907.22 C 599.815 916.15 612.875 955.378 600.112 969.218 C 598.929 970.501 604.865 983.551 602.935 987.959 C 599.921 980.034 597.455 968.97 595.882 960.647 C 591.557 949.041 592.258 894.865 592.845 879.664 z"/>
<path transform="translate(0,0)" fill="rgb(125,247,210)" d="M 1193.41 621.444 C 1198.05 622.462 1204.58 623.345 1208.22 625.953 C 1211.29 632.793 1212.57 663.097 1210.61 668.858 C 1207.46 671.368 1208.07 670.585 1203.42 671.201 L 1200.07 669.931 C 1197.68 666.81 1195.86 664.488 1193.24 661.578 C 1192.34 649.641 1190.93 632.811 1193.41 621.444 z"/>
<path transform="translate(0,0)" fill="rgb(48,250,157)" d="M 1223.57 632.737 C 1229.08 635.073 1236.07 637.376 1241.03 640.254 C 1240.31 641.448 1237.85 680.988 1238.07 685.61 C 1230.87 682.384 1223.72 679.043 1216.63 675.586 C 1222.27 675.864 1221.18 677.715 1226.16 673.615 C 1227.68 670.18 1226.87 668.896 1225.99 665.229 C 1223.54 654.965 1224.59 644.206 1223.57 632.737 z"/>
<path transform="translate(0,0)" fill="rgb(48,250,157)" d="M 1163.17 611.225 C 1168.84 613.073 1174.97 614.945 1180.51 617.026 C 1180 624.22 1177.69 656.887 1178.91 662.81 C 1175.28 662.017 1167.61 659.532 1163.78 658.414 C 1163.9 656.92 1163.78 656.762 1164.42 655.216 C 1168.08 646.339 1168.04 629.403 1165.03 620.283 C 1163.42 615.404 1162.35 616.235 1163.17 611.225 z"/>
<path transform="translate(0,0)" fill="url(#Gradient13)" d="M 1436.75 940.16 C 1438.14 942.709 1438.21 941.652 1438.02 943.926 C 1436.8 958.311 1443.42 1010.57 1437.26 1021.62 C 1432.84 1032.86 1420.75 1052.19 1419.85 1060.25 C 1415.89 1057.16 1411.02 1053.27 1406.29 1051.55 C 1385.97 1044.14 1361.53 1058.72 1345.85 1072.04 C 1322.81 1091.61 1297.18 1121.88 1291.64 1152.92 C 1290.77 1157.77 1290.75 1163.11 1289.9 1167.88 C 1291.51 1182.97 1296.05 1191.26 1309.55 1199.57 C 1320.75 1204.99 1323.21 1204.64 1335.76 1205.31 C 1320.96 1217.6 1283.33 1239.89 1266.21 1250.65 C 1242.55 1265.52 1213.76 1285.37 1189.92 1298.93 C 1177.54 1286.32 1130.37 1269.28 1112.19 1268.92 C 1102.81 1268.74 1082.45 1275.55 1075.17 1271.91 L 1072.98 1270.41 C 1070.79 1270.97 1070.94 1270.97 1069.26 1272.51 C 1058.29 1273.39 1049.28 1273.76 1038.32 1273.99 L 1036.37 1274.58 C 1025.87 1281.88 1012.22 1290.31 1001.07 1296.67 C 969.022 1318.72 931.584 1341.27 898.593 1362.16 C 890.466 1355.75 875.397 1346.84 866.247 1341.07 L 797.213 1298.33 L 611.185 1182.49 C 625.388 1172.88 645.841 1160.69 660.715 1151.92 L 664.231 1149.24 C 670.146 1145.47 675.527 1142.09 681.634 1138.64 C 686.249 1134.56 696.503 1129.25 703.207 1123.63 L 711.805 1130.49 C 718.04 1134.86 744.534 1151.55 747.25 1155.21 L 758.11 1162.53 C 763.232 1162.26 763.983 1162.99 768.847 1165.23 C 778.146 1150.41 771.058 1122.8 771.402 1105.86 C 771.562 1097.94 777.653 1083.93 776.162 1078.36 L 787.03 1083.1 C 790.181 1084.43 807.526 1091.39 809.655 1092.64 C 828.075 1099.1 846.94 1106.04 865.798 1110.9 C 888.097 1116.45 904.512 1119.62 927.196 1123.31 C 992.506 1132.34 1077.04 1132.57 1142 1120.68 C 1148.02 1119.57 1165.83 1116.9 1170.58 1114.29 C 1218.9 1105.08 1300.03 1073.74 1339.12 1043.57 C 1343.7 1041.21 1354.15 1033.22 1358.82 1029.65 C 1392.06 1004.23 1416.19 976.425 1436.75 940.16 z"/>
<path transform="translate(0,0)" fill="rgb(70,101,107)" d="M 776.162 1078.36 L 787.03 1083.1 C 790.181 1084.43 807.526 1091.39 809.655 1092.64 C 828.075 1099.1 846.94 1106.04 865.798 1110.9 C 865.702 1112.11 868.348 1203.24 867.938 1201.65 L 871.319 1204.49 C 875.187 1205.63 879.527 1207.03 883.444 1207.78 L 904.285 1213.06 L 912.775 1213.99 C 959.745 1224.4 1020.49 1225.78 1068.76 1223.83 C 1084.18 1223.21 1111.5 1218.92 1124.92 1219.26 C 1118.33 1222.86 1111.55 1227.37 1105.2 1231.44 C 1083.08 1245.63 1059.91 1259.01 1038.32 1273.99 L 1036.37 1274.58 C 1025.87 1281.88 1012.22 1290.31 1001.07 1296.67 C 969.022 1318.72 931.584 1341.27 898.593 1362.16 C 890.466 1355.75 875.397 1346.84 866.247 1341.07 L 797.213 1298.33 L 611.185 1182.49 C 625.388 1172.88 645.841 1160.69 660.715 1151.92 L 664.231 1149.24 C 670.146 1145.47 675.527 1142.09 681.634 1138.64 C 686.249 1134.56 696.503 1129.25 703.207 1123.63 L 711.805 1130.49 C 718.04 1134.86 744.534 1151.55 747.25 1155.21 L 758.11 1162.53 C 763.232 1162.26 763.983 1162.99 768.847 1165.23 C 778.146 1150.41 771.058 1122.8 771.402 1105.86 C 771.562 1097.94 777.653 1083.93 776.162 1078.36 z"/>
<path transform="translate(0,0)" fill="rgb(129,202,219)" d="M 660.715 1151.92 C 675.021 1171.12 691.201 1183.16 709.631 1197.64 C 773.064 1247.46 848.809 1278.82 928.544 1290.26 C 954.535 1293.99 974.664 1295.05 1001.07 1296.67 C 969.022 1318.72 931.584 1341.27 898.593 1362.16 C 890.466 1355.75 875.397 1346.84 866.247 1341.07 L 797.213 1298.33 L 611.185 1182.49 C 625.388 1172.88 645.841 1160.69 660.715 1151.92 z"/>
<path transform="translate(0,0)" fill="rgb(106,157,166)" d="M 681.634 1138.64 C 695.714 1156.22 713.157 1168.19 730.84 1181.41 C 801.531 1234.27 889.73 1262.11 977.315 1271.81 C 990.605 1273.18 1003.94 1274.05 1017.3 1274.41 C 1021.36 1274.51 1033.14 1274.21 1036.37 1274.58 C 1025.87 1281.88 1012.22 1290.31 1001.07 1296.67 C 974.664 1295.05 954.535 1293.99 928.544 1290.26 C 848.809 1278.82 773.064 1247.46 709.631 1197.64 C 691.201 1183.16 675.021 1171.12 660.715 1151.92 L 664.231 1149.24 C 670.146 1145.47 675.527 1142.09 681.634 1138.64 z"/>
<path transform="translate(0,0)" fill="url(#Gradient12)" d="M 776.162 1078.36 L 787.03 1083.1 C 790.181 1084.43 807.526 1091.39 809.655 1092.64 C 828.075 1099.1 846.94 1106.04 865.798 1110.9 C 865.702 1112.11 868.348 1203.24 867.938 1201.65 L 871.319 1204.49 C 860.764 1201.91 849.119 1197.94 838.662 1194.63 C 827.837 1190.67 820.789 1188.55 810.103 1183.56 L 803.81 1182.86 C 795.465 1178.18 786.55 1173.71 778.037 1169.28 L 768.847 1165.23 C 778.146 1150.41 771.058 1122.8 771.402 1105.86 C 771.562 1097.94 777.653 1083.93 776.162 1078.36 z"/>
<path transform="translate(0,0)" fill="url(#Gradient11)" d="M 776.162 1078.36 L 787.03 1083.1 C 790.181 1084.43 807.526 1091.39 809.655 1092.64 C 810.926 1094.11 812.151 1095.51 813.7 1096.69 C 815.634 1109.84 817.966 1176.94 810.103 1183.56 L 803.81 1182.86 C 795.465 1178.18 786.55 1173.71 778.037 1169.28 L 768.847 1165.23 C 778.146 1150.41 771.058 1122.8 771.402 1105.86 C 771.562 1097.94 777.653 1083.93 776.162 1078.36 z"/>
<path transform="translate(0,0)" fill="rgb(125,247,210)" d="M 776.162 1078.36 L 787.03 1083.1 C 782.439 1083.79 782.306 1083.88 778.428 1086.58 C 777.511 1088.59 777.314 1088.37 777.871 1089.74 C 781.835 1099.47 772.803 1109.82 776.636 1117.13 C 778.744 1112.94 777.967 1109.12 779.421 1106.12 C 779.105 1120.55 778.661 1132.99 780.076 1147.64 C 780.612 1153.19 774.821 1163.15 778.037 1169.28 L 768.847 1165.23 C 778.146 1150.41 771.058 1122.8 771.402 1105.86 C 771.562 1097.94 777.653 1083.93 776.162 1078.36 z"/>
<path transform="translate(0,0)" fill="url(#Gradient10)" d="M 838.662 1194.63 C 849.119 1197.94 860.764 1201.91 871.319 1204.49 C 875.187 1205.63 879.527 1207.03 883.444 1207.78 C 883.911 1211.87 884.079 1214.56 881.109 1217.85 C 866.119 1213.45 851.205 1209.25 836.76 1203.27 C 841.019 1202.37 840.301 1203.21 842.549 1200.55 C 841.699 1197.02 841.489 1197.71 838.662 1194.63 z"/>
<path transform="translate(0,0)" fill="rgb(211,227,242)" d="M 803.81 1182.86 L 810.103 1183.56 C 820.789 1188.55 827.837 1190.67 838.662 1194.63 C 841.489 1197.71 841.699 1197.02 842.549 1200.55 C 840.301 1203.21 841.019 1202.37 836.76 1203.27 C 825.044 1198.54 815.319 1194.19 803.906 1188.77 L 803.81 1182.86 z"/>
<path transform="translate(0,0)" fill="url(#Gradient9)" d="M 758.11 1162.53 C 763.232 1162.26 763.983 1162.99 768.847 1165.23 L 778.037 1169.28 C 786.55 1173.71 795.465 1178.18 803.81 1182.86 L 803.906 1188.77 C 796.361 1185.04 788.758 1181.18 781.07 1177.78 C 773.412 1172.88 765.376 1167.94 758.11 1162.53 z"/>
<path transform="translate(0,0)" fill="rgb(106,157,166)" d="M 883.444 1207.78 L 904.285 1213.06 L 902.996 1213.34 C 899.55 1214.11 897.943 1214.08 895.59 1216.66 C 894.826 1218.91 894.718 1217.93 895.323 1219.61 L 894.764 1220.33 C 889.033 1219.98 886.547 1219.25 881.109 1217.85 C 884.079 1214.56 883.911 1211.87 883.444 1207.78 z"/>
<path transform="translate(0,0)" fill="rgb(12,48,55)" d="M 781.07 1177.78 C 774.767 1178.71 748.826 1161.9 747.25 1155.21 L 758.11 1162.53 C 765.376 1167.94 773.412 1172.88 781.07 1177.78 z"/>
<path transform="translate(0,0)" fill="rgb(56,63,77)" d="M 1170.98 1210.66 C 1211.22 1197.51 1252.07 1188.39 1289.9 1167.88 C 1291.51 1182.97 1296.05 1191.26 1309.55 1199.57 C 1320.75 1204.99 1323.21 1204.64 1335.76 1205.31 C 1320.96 1217.6 1283.33 1239.89 1266.21 1250.65 C 1242.55 1265.52 1213.76 1285.37 1189.92 1298.93 C 1177.54 1286.32 1130.37 1269.28 1112.19 1268.92 C 1102.81 1268.74 1082.45 1275.55 1075.17 1271.91 L 1072.98 1270.41 C 1070.79 1270.97 1070.94 1270.97 1069.26 1272.51 C 1058.29 1273.39 1049.28 1273.76 1038.32 1273.99 C 1059.91 1259.01 1083.08 1245.63 1105.2 1231.44 C 1111.55 1227.37 1118.33 1222.86 1124.92 1219.26 C 1138.42 1214.79 1156.84 1211.43 1170.98 1210.66 z"/>
<path transform="translate(0,0)" fill="url(#Gradient8)" d="M 1309.55 1199.57 C 1320.75 1204.99 1323.21 1204.64 1335.76 1205.31 C 1320.96 1217.6 1283.33 1239.89 1266.21 1250.65 C 1242.55 1265.52 1213.76 1285.37 1189.92 1298.93 C 1177.54 1286.32 1130.37 1269.28 1112.19 1268.92 C 1102.81 1268.74 1082.45 1275.55 1075.17 1271.91 C 1076.95 1271.62 1078.47 1271.33 1080.23 1270.94 C 1101.81 1266.43 1127.82 1264.74 1150.57 1260.64 C 1210.06 1249.93 1257.47 1229.07 1309.55 1199.57 z"/>
<path transform="translate(0,0)" fill="rgb(126,136,147)" d="M 1124.92 1219.26 C 1138.42 1214.79 1156.84 1211.43 1170.98 1210.66 L 1114.24 1246.82 C 1105.48 1252.4 1087.45 1263.3 1080.45 1269.94 L 1080.23 1270.94 C 1078.47 1271.33 1076.95 1271.62 1075.17 1271.91 L 1072.98 1270.41 C 1070.79 1270.97 1070.94 1270.97 1069.26 1272.51 C 1058.29 1273.39 1049.28 1273.76 1038.32 1273.99 C 1059.91 1259.01 1083.08 1245.63 1105.2 1231.44 C 1111.55 1227.37 1118.33 1222.86 1124.92 1219.26 z"/>
<path transform="translate(0,0)" fill="url(#Gradient7)" d="M 865.798 1110.9 C 888.097 1116.45 904.512 1119.62 927.196 1123.31 C 931.762 1138.67 930.802 1201.69 920.02 1213.29 L 912.775 1213.99 L 904.285 1213.06 L 883.444 1207.78 C 879.527 1207.03 875.187 1205.63 871.319 1204.49 L 867.938 1201.65 C 868.348 1203.24 865.702 1112.11 865.798 1110.9 z"/>
<path transform="translate(0,0)" fill="url(#Gradient6)" d="M 611.185 1182.49 L 797.213 1298.33 L 866.247 1341.07 C 875.397 1346.84 890.466 1355.75 898.593 1362.16 C 901.777 1367.58 904.1 1371.16 905.962 1377.29 C 905.92 1410.36 906.062 1443.43 906.386 1476.5 L 893.736 1477.3 C 884.931 1473.12 876.802 1467.53 868.885 1461.85 C 830.165 1485.85 792.074 1510.93 753.464 1535.11 C 750.708 1536.84 745.711 1540.39 742.828 1541.28 C 719.996 1557.73 693.99 1571.96 670.478 1587.59 C 666.447 1590.27 661.207 1593.81 657.059 1596.14 C 654.481 1594.43 633.787 1580.9 632.807 1579.83 C 623.973 1575.55 577.141 1545.9 570.636 1540.31 C 546.458 1526.15 520.525 1508.75 496.546 1493.61 C 494.057 1492.51 478.829 1482.59 475.581 1480.48 C 461.898 1471.59 446.778 1462.78 433.493 1453.47 C 428.876 1450.81 423.061 1446.79 418.48 1443.82 L 415.394 1441.36 C 412.638 1435.08 413.992 1376.54 414.004 1364.55 C 425.69 1354.63 457.196 1336.88 471.963 1326.45 C 477.486 1324.76 511.156 1301.59 517.794 1297.29 L 606.967 1240.02 C 606.34 1228.1 604.005 1190.51 611.185 1182.49 z"/>
<path transform="translate(0,0)" fill="url(#Gradient5)" d="M 611.185 1182.49 L 797.213 1298.33 L 866.247 1341.07 C 875.397 1346.84 890.466 1355.75 898.593 1362.16 C 901.777 1367.58 904.1 1371.16 905.962 1377.29 C 905.92 1410.36 906.062 1443.43 906.386 1476.5 L 893.736 1477.3 C 884.931 1473.12 876.802 1467.53 868.885 1461.85 C 830.165 1485.85 792.074 1510.93 753.464 1535.11 C 750.708 1536.84 745.711 1540.39 742.828 1541.28 C 719.996 1557.73 693.99 1571.96 670.478 1587.59 C 666.447 1590.27 661.207 1593.81 657.059 1596.14 C 654.481 1594.43 633.787 1580.9 632.807 1579.83 C 637.796 1579.49 650.414 1591.4 653.703 1589.29 C 651.056 1585.48 649.316 1584.61 646.67 1581.42 C 649.783 1583.17 650.392 1583.66 653.981 1584.47 L 654.674 1583.55 C 655.559 1574.77 655.401 1518.4 652.021 1514.22 L 647.244 1511.3 C 674.192 1490.23 712.443 1469.51 741.671 1450.42 C 771.392 1431.02 801.282 1412.07 831.077 1392.83 C 843.205 1385 863.344 1374.63 873.718 1366.47 C 869.325 1363.2 858.368 1357.05 853.33 1354 L 815.367 1330.65 L 702.745 1260.94 C 682.916 1248.66 657.229 1233.79 638.577 1220.67 C 628.405 1226.01 616.818 1233.78 606.967 1240.02 C 606.34 1228.1 604.005 1190.51 611.185 1182.49 z"/>
<path transform="translate(0,0)" fill="rgb(150,177,209)" d="M 653.338 1513.45 C 663.246 1513.62 748.571 1453.84 766.264 1444.39 C 762.899 1448.64 762.17 1448.91 757.546 1452.02 C 767.699 1473.91 766.273 1501.61 762.865 1525.12 C 762.246 1529.39 742.209 1536.96 742.828 1541.28 C 719.996 1557.73 693.99 1571.96 670.478 1587.59 C 666.447 1590.27 661.207 1593.81 657.059 1596.14 C 654.481 1594.43 633.787 1580.9 632.807 1579.83 C 637.796 1579.49 650.414 1591.4 653.703 1589.29 C 651.056 1585.48 649.316 1584.61 646.67 1581.42 C 649.783 1583.17 650.392 1583.66 653.981 1584.47 L 654.674 1583.55 C 655.559 1574.77 655.401 1518.4 652.021 1514.22 L 653.338 1513.45 z"/>
<path transform="translate(0,0)" fill="rgb(211,227,242)" d="M 653.338 1513.45 C 657.98 1509.31 668.723 1502.92 674.537 1499.24 L 715.681 1473.23 L 835.744 1395.92 C 843.382 1391.03 873.122 1370.87 879.379 1368.75 L 881.002 1369.9 L 881.133 1370.69 C 856.125 1387.01 831.013 1403.16 805.798 1419.16 C 795.424 1425.74 774.958 1437.83 766.264 1444.39 C 748.571 1453.84 663.246 1513.62 653.338 1513.45 z"/>
<path transform="translate(0,0)" fill="rgb(56,63,77)" d="M 881.002 1369.9 L 883.12 1368.48 C 894.602 1372.4 887.835 1441.3 888.915 1453.97 C 889.173 1457 880.349 1458.03 877.976 1458.3 L 877.198 1457.7 C 879.851 1455.2 881.875 1454.41 881.551 1451.24 C 881.058 1446.4 881.394 1439.35 881.223 1435.05 C 880.723 1422.53 883.327 1380.09 881.133 1370.69 L 881.002 1369.9 z"/>
<path transform="translate(0,0)" fill="rgb(56,63,77)" d="M 414.004 1364.55 L 416.94 1366.17 L 580.179 1469.29 C 600.586 1482.21 628.017 1498.14 647.244 1511.3 L 652.021 1514.22 C 655.401 1518.4 655.559 1574.77 654.674 1583.55 L 653.981 1584.47 C 650.392 1583.66 649.783 1583.17 646.67 1581.42 C 649.316 1584.61 651.056 1585.48 653.703 1589.29 C 650.414 1591.4 637.796 1579.49 632.807 1579.83 C 623.973 1575.55 577.141 1545.9 570.636 1540.31 C 546.458 1526.15 520.525 1508.75 496.546 1493.61 C 494.057 1492.51 478.829 1482.59 475.581 1480.48 C 461.898 1471.59 446.778 1462.78 433.493 1453.47 C 428.876 1450.81 423.061 1446.79 418.48 1443.82 L 415.394 1441.36 C 412.638 1435.08 413.992 1376.54 414.004 1364.55 z"/>
<path transform="translate(0,0)" fill="rgb(0,1,1)" d="M 416.94 1366.17 L 580.179 1469.29 C 600.586 1482.21 628.017 1498.14 647.244 1511.3 L 652.021 1514.22 C 655.401 1518.4 655.559 1574.77 654.674 1583.55 L 653.981 1584.47 C 650.392 1583.66 649.783 1583.17 646.67 1581.42 C 645.405 1580.26 627.37 1568.59 624.156 1566.39 C 634.481 1560.11 643.378 1553.23 653.008 1545.99 C 634.098 1536.16 617.282 1523.89 599.034 1513.17 C 548.836 1483.69 498.906 1447.91 448.796 1418.86 C 438.988 1424.48 429.195 1431.23 419.734 1437.5 C 418.711 1436.41 417.64 1434.96 417.573 1433.47 C 416.626 1412.41 417.006 1386.98 416.94 1366.17 z"/>
<path transform="translate(0,0)" fill="rgb(211,227,242)" d="M 414.004 1364.55 L 416.94 1366.17 C 417.006 1386.98 416.626 1412.41 417.573 1433.47 C 417.64 1434.96 418.711 1436.41 419.734 1437.5 C 436.378 1446.85 453.737 1458.22 469.993 1468.47 C 492.089 1482.25 514.024 1496.29 535.792 1510.59 C 533.5 1510.44 531.272 1510.17 529.01 1509.78 L 527.942 1511.06 C 530.924 1515.93 568.238 1534.68 570.636 1540.31 C 546.458 1526.15 520.525 1508.75 496.546 1493.61 C 494.057 1492.51 478.829 1482.59 475.581 1480.48 C 461.898 1471.59 446.778 1462.78 433.493 1453.47 C 428.876 1450.81 423.061 1446.79 418.48 1443.82 L 415.394 1441.36 C 412.638 1435.08 413.992 1376.54 414.004 1364.55 z"/>
<path transform="translate(0,0)" fill="rgb(126,136,147)" d="M 433.493 1453.47 C 435.593 1452.36 436.378 1451.32 437.844 1452.21 C 456.534 1463.57 491.008 1483.27 507.068 1495.32 L 506.446 1496.02 C 504.507 1495.54 497.865 1493.53 496.546 1493.61 C 494.057 1492.51 478.829 1482.59 475.581 1480.48 C 461.898 1471.59 446.778 1462.78 433.493 1453.47 z"/>
<path transform="translate(0,0)" fill="url(#Gradient4)" d="M 570.636 1540.31 C 568.238 1534.68 530.924 1515.93 527.942 1511.06 L 529.01 1509.78 C 531.272 1510.17 533.5 1510.44 535.792 1510.59 C 541.035 1513.32 546.202 1516.62 551.166 1519.84 C 575.357 1535.53 600.136 1550.46 624.156 1566.39 C 627.37 1568.59 645.405 1580.26 646.67 1581.42 C 649.316 1584.61 651.056 1585.48 653.703 1589.29 C 650.414 1591.4 637.796 1579.49 632.807 1579.83 C 623.973 1575.55 577.141 1545.9 570.636 1540.31 z"/>
<path transform="translate(0,0)" fill="rgb(0,1,1)" d="M 706.212 1366.11 C 706.968 1366.78 708.593 1371.35 708.831 1371.52 C 724.576 1382.41 746.325 1395.11 762.203 1404.82 C 752.295 1411.15 731.398 1425.48 721.971 1429.97 C 702.355 1417.91 682.813 1405.74 663.345 1393.45 C 675.908 1384.51 692.841 1373.88 706.212 1366.11 z"/>
<path transform="translate(0,0)" fill="rgb(0,1,1)" d="M 581.901 1287.85 C 596.095 1300.89 620.502 1314.38 637.316 1324.93 C 629.636 1329.93 604.839 1346.56 597.571 1349.44 C 578.746 1338.29 559.258 1325.33 540.406 1313.73 C 553.428 1304.97 568.248 1295.49 581.901 1287.85 z"/>
<path transform="translate(0,0)" fill="rgb(4,156,140)" d="M 1289.9 1167.88 C 1290.75 1163.11 1290.77 1157.77 1291.64 1152.92 C 1297.18 1121.88 1322.81 1091.61 1345.85 1072.04 C 1361.53 1058.72 1385.97 1044.14 1406.29 1051.55 C 1411.02 1053.27 1415.89 1057.16 1419.85 1060.25 L 1420.68 1061.46 C 1431.53 1077.37 1426.3 1082.05 1443.94 1091.81 C 1466.14 1109.82 1492.37 1128.63 1515.43 1146 C 1551.4 1173.08 1587.19 1200.39 1622.81 1227.93 C 1627.18 1231.2 1631.6 1234.39 1636.09 1237.48 C 1668.04 1262.52 1701.15 1286.23 1733.03 1311.35 C 1751.58 1325.97 1770.2 1334.53 1772.9 1361.06 C 1775.57 1387.41 1763.99 1412.84 1748.63 1433.52 C 1723.27 1461.14 1675.96 1499.08 1643.74 1456.9 C 1640.69 1441.72 1640.18 1435.92 1641.23 1420.61 C 1640.02 1418.41 1639.96 1418.37 1638.24 1416.52 L 1639.91 1423.34 C 1639.49 1423.15 1639.06 1422.96 1638.64 1422.78 C 1633.62 1419.1 1626.56 1416.9 1620.21 1413.81 C 1610.2 1415.36 1606.86 1416.45 1597.7 1420.13 C 1575.37 1402.6 1550.07 1379.81 1527.96 1361.23 L 1390.82 1246.57 C 1384.03 1240.89 1344.02 1205.76 1338.76 1203.84 L 1335.76 1205.31 C 1323.21 1204.64 1320.75 1204.99 1309.55 1199.57 C 1296.05 1191.26 1291.51 1182.97 1289.9 1167.88 z"/>
<path transform="translate(0,0)" fill="rgb(19,202,180)" d="M 1289.9 1167.88 C 1290.75 1163.11 1290.77 1157.77 1291.64 1152.92 C 1297.18 1121.88 1322.81 1091.61 1345.85 1072.04 C 1361.53 1058.72 1385.97 1044.14 1406.29 1051.55 C 1411.02 1053.27 1415.89 1057.16 1419.85 1060.25 L 1420.68 1061.46 C 1431.53 1077.37 1426.3 1082.05 1443.94 1091.81 C 1466.14 1109.82 1492.37 1128.63 1515.43 1146 C 1551.4 1173.08 1587.19 1200.39 1622.81 1227.93 C 1621.54 1228.44 1620.79 1228.5 1619.44 1228.77 C 1608.1 1222.93 1596.32 1211.52 1585.67 1203.97 C 1530.81 1165.12 1477.15 1124.59 1423.43 1084.2 C 1421.79 1082.97 1409.52 1081.77 1407.19 1081.71 C 1398.97 1083.99 1387.88 1087.56 1381.08 1092.66 C 1358.39 1106.99 1354.12 1117.64 1339.18 1135.42 C 1352.02 1147.24 1372.4 1158.86 1385.93 1171.12 C 1391.02 1175.74 1395.44 1185.75 1401.57 1186.14 C 1413.75 1186.8 1421.44 1205.84 1429.51 1212.84 C 1434.19 1216.89 1438.37 1218.49 1442.64 1222.06 L 1498.08 1268.37 C 1516.71 1283.87 1534.89 1300.54 1553.55 1316.02 C 1561.54 1322.65 1571.93 1332.81 1580.69 1338 C 1588.08 1349.15 1627.64 1379.35 1627.62 1387.27 C 1622.78 1388.27 1424.04 1231.51 1405.05 1217.11 C 1386.21 1202.82 1354.69 1173.15 1331.76 1161.3 L 1328.34 1159.75 C 1326.96 1160.31 1325.17 1161.32 1324.72 1162.83 C 1319.82 1179.51 1326.81 1193.38 1338.76 1203.84 L 1335.76 1205.31 C 1323.21 1204.64 1320.75 1204.99 1309.55 1199.57 C 1296.05 1191.26 1291.51 1182.97 1289.9 1167.88 z"/>
<path transform="translate(0,0)" fill="url(#Gradient3)" d="M 1381.08 1092.66 C 1387.88 1087.56 1398.97 1083.99 1407.19 1081.71 C 1414.1 1088.52 1426.4 1096.87 1434.4 1103.12 L 1486.78 1143.68 L 1662 1278.16 C 1673.54 1287.07 1715.39 1317 1721.36 1324.27 L 1720.97 1325.86 C 1707.56 1332.68 1698.35 1336.83 1686.66 1346.57 C 1673.4 1333.25 1655.7 1319.8 1641.71 1306.81 C 1634.67 1300.28 1623.5 1294.55 1615.87 1287.72 C 1604.57 1277.61 1590.44 1263.57 1577.26 1256.28 L 1577.48 1255.31 C 1578.75 1255.28 1581.2 1255.36 1582.25 1254.96 L 1579.94 1255.18 L 1580.24 1252.8 C 1569.63 1246.53 1559.6 1239.11 1550.74 1230.64 C 1541.65 1221.96 1535.18 1214.82 1523.24 1210.33 C 1514.55 1207.05 1514.6 1206.1 1510.8 1198.2 C 1503.65 1193.9 1495.42 1187.27 1489.57 1181.46 C 1468.83 1160.85 1445.59 1144.49 1423.41 1125.83 C 1422.31 1127.12 1422.6 1127.47 1421.13 1127.42 C 1414.37 1127.18 1388.05 1099.19 1381.08 1092.66 z"/>
<path transform="translate(0,0)" fill="url(#Gradient2)" d="M 1338.76 1203.84 C 1326.81 1193.38 1319.82 1179.51 1324.72 1162.83 C 1325.17 1161.32 1326.96 1160.31 1328.34 1159.75 L 1331.76 1161.3 C 1332.78 1168.57 1350.35 1181.42 1356.58 1186.47 C 1394.7 1217.42 1433.9 1251.93 1473 1281.38 L 1568.98 1354.53 C 1587.6 1368.88 1622.54 1398.33 1643.35 1407.5 L 1641.23 1420.61 C 1640.02 1418.41 1639.96 1418.37 1638.24 1416.52 L 1639.91 1423.34 C 1639.49 1423.15 1639.06 1422.96 1638.64 1422.78 C 1633.62 1419.1 1626.56 1416.9 1620.21 1413.81 C 1610.2 1415.36 1606.86 1416.45 1597.7 1420.13 C 1575.37 1402.6 1550.07 1379.81 1527.96 1361.23 L 1390.82 1246.57 C 1384.03 1240.89 1344.02 1205.76 1338.76 1203.84 z"/>
<path transform="translate(0,0)" fill="rgb(3,94,86)" d="M 1651.31 1389.79 L 1648.44 1390.15 C 1649.28 1389.38 1663.86 1368.03 1664.43 1366.9 C 1663.51 1365.58 1662.6 1364.25 1661.69 1362.91 L 1662.46 1360.09 C 1667.96 1356.84 1667.27 1360.64 1671.44 1358.33 C 1665.95 1350.85 1643.83 1340.22 1632.39 1327.63 C 1640.09 1333.55 1668.47 1351.5 1676.76 1355.47 C 1666.58 1366.3 1658.24 1376.5 1651.31 1389.79 z"/>
<path transform="translate(0,0)" fill="rgb(2,76,135)" d="M 903.704 1552.26 C 935.738 1533.6 973.771 1507.81 1005.68 1487.56 L 1200.08 1364.62 C 1229.3 1346.21 1260.75 1324.37 1290.48 1307.79 C 1303.33 1328.98 1314.83 1332.74 1338.38 1330.07 C 1355.66 1341.5 1379.51 1361.12 1396.13 1374.17 C 1420.85 1393.59 1446.56 1412.82 1470.96 1432.41 C 1460.16 1430.26 1396.86 1372.64 1380.69 1364.82 C 1376.44 1368.79 1384.81 1376.58 1384.36 1379.03 C 1382.34 1390.1 1366.24 1401.01 1359.48 1410.43 C 1357.52 1413.25 1335.19 1430.54 1334.9 1430.57 C 1315.83 1432.77 1320.04 1444.67 1310.28 1452.41 C 1295.13 1463.01 1279.42 1473.61 1263.66 1483.39 C 1247.07 1493.68 1233.3 1492.76 1219.05 1510.15 C 1215.55 1514.41 1180.68 1522.56 1173.47 1527.4 C 1170.54 1529.36 1159.11 1533.48 1155.32 1535.7 C 1140.72 1537.92 1123.47 1544.07 1109.59 1547.04 C 1086.64 1551.95 1061.61 1551.26 1038.26 1553.13 C 1030.04 1553.64 1018.62 1551.17 1011.62 1551.57 C 995.537 1552.48 965.111 1555.32 950.443 1549.34 C 944.094 1551.65 932.983 1551.39 926.745 1548.87 L 925.159 1546.99 C 926.117 1541.3 930.42 1542.66 930.087 1539.77 C 921.791 1539.22 914.102 1551.13 904.523 1552.59 C 895.986 1553.89 883.154 1536.38 876.007 1538.56 C 861.848 1542.87 797.393 1591.22 788.005 1591.32 C 799.593 1583.5 813.372 1575.49 825.337 1567.76 C 841.595 1557.27 860.18 1544.61 877.123 1535.8 C 886.165 1540.72 895.029 1546.67 903.704 1552.26 z"/>
<path transform="translate(0,0)" fill="url(#Gradient1)" d="M 1075.17 1271.91 C 1082.45 1275.55 1102.81 1268.74 1112.19 1268.92 C 1130.37 1269.28 1177.54 1286.32 1189.92 1298.93 L 982.411 1430.57 C 969.858 1438.46 915.519 1473.95 906.386 1476.5 C 906.062 1443.43 905.92 1410.36 905.962 1377.29 C 904.1 1371.16 901.777 1367.58 898.593 1362.16 C 931.584 1341.27 969.022 1318.72 1001.07 1296.67 C 1012.22 1290.31 1025.87 1281.88 1036.37 1274.58 L 1038.32 1273.99 C 1049.28 1273.76 1058.29 1273.39 1069.26 1272.51 C 1070.94 1270.97 1070.79 1270.97 1072.98 1270.41 L 1075.17 1271.91 z"/>
<path transform="translate(0,0)" fill="rgb(211,227,242)" d="M 1069.26 1272.51 L 1070.25 1273.61 C 1066.89 1276.62 1035.32 1296.35 1029.89 1299.86 C 1003.68 1316.8 977.323 1333.49 950.81 1349.94 C 937.723 1358.13 919.259 1370.44 905.962 1377.29 C 904.1 1371.16 901.777 1367.58 898.593 1362.16 C 931.584 1341.27 969.022 1318.72 1001.07 1296.67 C 1012.22 1290.31 1025.87 1281.88 1036.37 1274.58 L 1038.32 1273.99 C 1049.28 1273.76 1058.29 1273.39 1069.26 1272.51 z"/>
<path transform="translate(0,0)" fill="rgb(3,94,86)" d="M 1597.7 1420.13 C 1606.86 1416.45 1610.2 1415.36 1620.21 1413.81 C 1626.56 1416.9 1633.62 1419.1 1638.64 1422.78 C 1639.06 1422.96 1639.49 1423.15 1639.91 1423.34 L 1638.24 1416.52 C 1639.96 1418.37 1640.02 1418.41 1641.23 1420.61 C 1640.18 1435.92 1640.69 1441.72 1643.74 1456.9 C 1637.38 1453.71 1604.49 1425.94 1597.7 1420.13 z"/>
<path transform="translate(0,0)" fill="rgb(2,76,135)" d="M 471.963 1326.45 L 471.764 1324.9 C 500.561 1305.29 530.547 1286.93 559.796 1267.9 C 565.129 1264.43 604.459 1240.75 604.458 1237.45 C 604.45 1220.39 605.351 1201.1 605.23 1184.16 C 599.604 1175.51 591.985 1180.78 589.833 1164.44 C 586.876 1141.99 586.729 1120.58 588.798 1098.06 C 590.003 1084.94 587.27 1069.1 595.379 1057.58 C 598.407 1056.94 606.627 1054.32 605.3 1049.75 C 600.564 1033.45 598.142 1016.77 597.704 999.816 C 597.568 994.528 597.378 992.465 600.947 988.994 C 592.156 1026.6 616.413 1080.98 636.693 1112.14 C 641.143 1118.98 658.8 1143.49 664.231 1149.24 L 660.715 1151.92 C 645.841 1160.69 625.388 1172.88 611.185 1182.49 C 604.005 1190.51 606.34 1228.1 606.967 1240.02 L 517.794 1297.29 C 511.156 1301.59 477.486 1324.76 471.963 1326.45 z"/>
<path transform="translate(0,0)" fill="rgb(2,76,135)" d="M 1369.58 649.078 C 1376.08 653.747 1386.5 664.317 1392.27 670.369 C 1427.98 707.828 1452.13 751.909 1461.07 803.172 C 1465.56 828.922 1461.94 845.272 1461.89 870.381 C 1461.82 899.917 1464.39 930.417 1460.14 959.97 C 1458.13 973.877 1451.06 992.89 1446.85 1006.75 C 1447.22 1007.45 1447.6 1008.15 1447.98 1008.85 C 1452.76 1006.28 1450.41 1001.51 1455.71 999.877 C 1457.91 1006.44 1453.09 1012.3 1449.83 1017.91 L 1448.32 1018.26 C 1446.1 1016.36 1446.25 1016.14 1444.95 1013.44 L 1443.3 1014.02 C 1440.51 1020.32 1438.27 1018.06 1442.28 1024.22 C 1448.94 1034.45 1440.62 1042.19 1448.3 1054.03 C 1447.96 1063.46 1440.51 1085.56 1448.05 1092.5 C 1455.32 1099.19 1475.84 1113.48 1483.49 1119.56 C 1502.79 1134.88 1631.77 1229.31 1636.09 1237.48 C 1631.6 1234.39 1627.18 1231.2 1622.81 1227.93 C 1587.19 1200.39 1551.4 1173.08 1515.43 1146 C 1492.37 1128.63 1466.14 1109.82 1443.94 1091.81 C 1426.3 1082.05 1431.53 1077.37 1420.68 1061.46 L 1419.85 1060.25 C 1420.75 1052.19 1432.84 1032.86 1437.26 1021.62 C 1443.42 1010.57 1436.8 958.311 1438.02 943.926 C 1438.21 941.652 1438.14 942.709 1436.75 940.16 L 1440.42 932.745 C 1440.52 932.249 1440.79 930.76 1441.1 930.061 C 1447.09 916.404 1451.93 902.479 1457.49 888.712 C 1458.43 888.26 1459.37 887.809 1460.31 887.357 C 1460.67 873.016 1461.19 858.506 1460.82 844.177 C 1461.05 836.854 1461.08 829.525 1460.88 822.2 C 1460.3 804.71 1456.76 789.576 1451.59 772.981 C 1435.55 721.418 1407.53 686.4 1368.72 650.331 L 1369.58 649.078 z"/>
<path transform="translate(0,0)" fill="rgb(30,228,161)" d="M 1460.31 887.357 C 1460.58 921.408 1462.45 954.052 1451.33 986.442 C 1448.7 994.086 1447.83 1000.21 1442.91 1007.04 L 1442.12 1006.9 C 1442.9 988.037 1441.76 955.823 1442.17 935.579 C 1441.59 934.635 1441 933.69 1440.42 932.745 C 1440.52 932.249 1440.79 930.76 1441.1 930.061 C 1447.09 916.404 1451.93 902.479 1457.49 888.712 C 1458.43 888.26 1459.37 887.809 1460.31 887.357 z"/>
<path transform="translate(0,0)" fill="rgb(91,116,149)" d="M 1437.26 1021.62 C 1442.13 1025.62 1442.8 1027.07 1443.19 1033.63 C 1444.31 1052.71 1443.95 1072.67 1443.94 1091.81 C 1426.3 1082.05 1431.53 1077.37 1420.68 1061.46 L 1419.85 1060.25 C 1420.75 1052.19 1432.84 1032.86 1437.26 1021.62 z"/>
</svg>